<?xml version="1.0" encoding="utf-8"?>
<!-- Uploaded to: SVG Repo, www.svgrepo.com, Generator: SVG Repo Mixer Tools -->
<svg fill="#000000" version="1.1" id="Layer_1" xmlns="http://www.w3.org/2000/svg" xmlns:xlink="http://www.w3.org/1999/xlink" 
	 width="800px" height="800px" viewBox="0 0 256 253" enable-background="new 0 0 256 253" xml:space="preserve">
<path d="M107.858,175.321c-4.471,0-8.094-3.624-8.094-8.094c0-4.471,3.624-8.094,8.094-8.094c4.471,0,8.094,3.624,8.094,8.094
	C115.953,171.698,112.329,175.321,107.858,175.321z M133.977,167.227c0-4.471-3.624-8.094-8.094-8.094
	c-4.471,0-8.094,3.624-8.094,8.094c0,4.471,3.624,8.094,8.094,8.094C130.353,175.321,133.977,171.698,133.977,167.227z M136,167.227
	c0,4.471,3.624,8.094,8.094,8.094s8.094-3.624,8.094-8.094c0-4.471-3.624-8.094-8.094-8.094
	C139.624,159.133,136,162.756,136,167.227z M162.589,159.133c-4.471,0-8.094,3.624-8.094,8.094c0,4.471,3.624,8.094,8.094,8.094
	c4.471,0,8.094-3.624,8.094-8.094C170.684,162.756,167.06,159.133,162.589,159.133z M124.753,183.463
	c0-4.471-3.624-8.094-8.094-8.094c-4.471,0-8.094,3.624-8.094,8.094c0,4.471,3.624,8.094,8.094,8.094
	C121.082,191.557,124.753,187.933,124.753,183.463z M134.871,191.557c4.471,0,8.094-3.624,8.094-8.094
	c0-4.471-3.624-8.094-8.094-8.094c-4.471,0-8.094,3.624-8.094,8.094C126.776,187.933,130.4,191.557,134.871,191.557z
	 M134.871,207.746c-4.471,0-8.094,3.624-8.094,8.094c0,4.471,3.624,8.094,8.094,8.094c4.471,0,8.094-3.624,8.094-8.094
	C142.965,211.369,139.342,207.746,134.871,207.746z M133.835,199.651c0-4.471-3.624-8.094-8.094-8.094s-8.094,3.624-8.094,8.094
	s3.624,8.094,8.094,8.094S133.835,204.122,133.835,199.651z M144.001,191.557c-4.471,0-8.094,3.624-8.094,8.094
	s3.624,8.094,8.094,8.094s8.094-3.624,8.094-8.094S148.471,191.557,144.001,191.557z M153.318,175.321
	c-4.471,0-8.094,3.624-8.094,8.094c0,4.471,3.624,8.094,8.094,8.094c4.471,0,8.094-3.624,8.094-8.094
	C161.46,178.945,157.836,175.321,153.318,175.321z M100.752,157.203c8.047,0.282,15.53-8.847,15.53-8.847v-0.188
	c0,0,2.306,2.918,7.059,3.718c0,0,3.812-7.247-0.894-12.989h10.494v18.118v2.024h5.224v-1.835V125.39
	c0-5.459,4.424-9.883,9.883-9.883v-5.224c-8.283,0-15.106,6.73-15.106,15.106v8.236h-7.153c4.424-3.718,4.047-9.977,4.047-9.977
	c-4.612-1.318-7.953,0.282-7.953,0.282v-0.188c0,0-2.918-11.483-10.259-14.589c-7.059,7.577-4.33,18.212-4.33,18.212
	c-8.471-10.871-21.977,1.129-21.977,1.129s7.059,16.612,19.342,10.259C104.564,138.755,97.552,147.32,100.752,157.203z M2,61h252v8
	c-0.301,14.158-9.11,25.609-22,29.554V233h22v18H2v-18h22V98.576C11.625,94.302,2,82.678,2,69V61z M42,98.594V233h172V98.5
	c-13.228-3.738-22.954-15.728-22.954-30.154c0,10.448-9.63,31.447-31.363,31.447c-24.053,0-31.464-20.395-31.464-31.447
	c0,11.855-9.513,31.47-31.202,31.47c-24.971,0-31.727-24.992-31.727-31.47C65.29,82.895,55.402,94.966,42,98.594z M222.832,22H223V2
	H34v20L2,54h252L222.832,22z"/>
</svg>