<?xml version="1.0" encoding="UTF-8"?>
<svg version="1.1" xmlns="http://www.w3.org/2000/svg" width="2000" height="2000">
<path d="M0 0 C1.16121746 -0.00623996 2.32243492 -0.01247993 3.51884079 -0.01890898 C6.7151988 -0.03202908 9.91094081 -0.02740851 13.10728264 -0.0149641 C16.56475847 -0.00586904 20.02215456 -0.01990528 23.47961426 -0.03088379 C30.24215397 -0.04862635 37.00451563 -0.04484815 43.76706219 -0.03323323 C49.26541792 -0.02418232 54.76372391 -0.02298205 60.26208496 -0.02732849 C61.04604542 -0.02794142 61.83000589 -0.02855436 62.63772273 -0.02918586 C64.23055809 -0.03046482 65.82339344 -0.03176168 67.41622877 -0.03307623 C82.33573491 -0.04446953 97.25514257 -0.03138797 112.17463255 -0.00987476 C124.96315068 0.0079951 137.75152355 0.00489064 150.54003906 -0.0135498 C165.40787266 -0.03497864 180.27562006 -0.04337101 195.14346695 -0.03110075 C196.73028817 -0.02982662 198.31710941 -0.02856913 199.90393066 -0.02732849 C200.68458098 -0.02671139 201.4652313 -0.02609429 202.26953769 -0.02545848 C207.75828552 -0.02201162 213.24697845 -0.02781959 218.73571777 -0.0372467 C225.42899705 -0.04849048 232.1220888 -0.04537689 238.81534672 -0.02412373 C242.22730893 -0.01364507 245.63895901 -0.00943646 249.05091858 -0.02272034 C252.75626075 -0.03367525 256.4607289 -0.01991087 260.16601562 0 C261.23509533 -0.00892289 262.30417503 -0.01784577 263.40565109 -0.02703905 C273.50625516 0.07800219 282.84554791 3.20835055 290.08300781 10.50793457 C296.75766038 19.61512718 298.38589483 27.27183777 298.20800781 38.38293457 C298.19898438 39.45285645 298.18996094 40.52277832 298.18066406 41.62512207 C298.15720123 44.25295896 298.1243724 46.88032863 298.08300781 49.50793457 C299.01757812 49.21918457 299.95214844 48.93043457 300.91503906 48.63293457 C320.63086274 42.91038175 339.55035369 44.18985785 357.72705078 54.17321777 C373.65895955 63.49033272 383.8119377 78.25950634 389.04785156 95.72668457 C394.88350077 120.46768583 393.48514797 150.65456251 380.08300781 172.50793457 C377.94431339 175.72281639 375.66759165 178.64280699 373.08300781 181.50793457 C372.32310547 182.40512207 372.32310547 182.40512207 371.54785156 183.32043457 C359.94995244 196.08667242 342.82655961 202.03776905 326.08300781 203.50793457 C325.29410156 203.58012207 324.50519531 203.65230957 323.69238281 203.72668457 C310.76189632 204.30137286 298.40846024 199.20067789 287.08300781 193.50793457 C286.71032321 197.62783698 286.3405403 201.74798951 285.97293091 205.86834717 C285.8378176 207.37991333 285.70213504 208.89142872 285.56588745 210.40289307 C284.74832342 219.48509626 283.990318 228.56719429 283.35644531 237.66418457 C283.23597091 239.34567767 283.11528564 241.02715567 282.99438477 242.70861816 C282.81983722 245.13784502 282.64968718 247.56686119 282.49594116 249.99749756 C280.39258661 283.19835577 280.39258661 283.19835577 270.08300781 293.50793457 C270.66592433 293.50940113 271.24884085 293.51086769 271.8494215 293.51237869 C286.03815997 293.54944288 300.22666554 293.60845224 314.41520977 293.69183731 C321.27672908 293.73163368 328.13813361 293.76402302 334.99975586 293.77893066 C341.61994896 293.79333463 348.23982263 293.82843893 354.85987282 293.87624359 C357.38722456 293.89109613 359.91462708 293.89897779 362.44202232 293.89981842 C365.97858104 293.90217807 369.5141487 293.92917902 373.05053711 293.96203613 C374.09854492 293.95700577 375.14655273 293.9519754 376.22631836 293.9467926 C383.32936075 294.04908494 383.32936075 294.04908494 387.18659973 296.39752197 C389.34955799 298.80456421 390.3481454 300.34802621 391.08300781 303.50793457 C390.60984266 308.96785633 389.14079101 313.51360678 387.09863281 318.53137207 C386.8011615 319.27698395 386.50369019 320.02259583 386.19720459 320.790802 C385.56881769 322.36045591 384.93660929 323.9285848 384.30078125 325.49523926 C383.34018264 327.86523281 382.39433411 330.24071827 381.45019531 332.61730957 C375.18250981 348.27037427 368.9805191 361.68786364 353.08300781 369.50793457 C346.00137399 372.176687 339.56998671 372.93992171 332.04431248 372.8882513 C330.97239417 372.89291122 329.90047587 372.89757114 328.7960752 372.90237227 C325.20967346 372.91430862 321.6236515 372.90493176 318.0372467 372.89561462 C315.4378292 372.89978811 312.83841352 372.90526571 310.23900121 372.91193444 C304.59013752 372.92428834 298.94135691 372.92551931 293.29248428 372.919384 C284.89230264 372.91028489 276.49219769 372.9183314 268.09202193 372.92967524 C253.08811904 372.94933709 238.0842507 372.95169052 223.080338 372.94648004 C209.9495189 372.94192231 196.81871348 372.94252275 183.68789482 372.94832039 C181.92633247 372.94907726 180.16477011 372.94983324 178.40320776 372.95058833 C175.74867626 372.95173353 173.09414475 372.95288341 170.43961326 372.95404758 C145.76181714 372.96475188 121.08402558 372.9694785 96.40622807 372.96157742 C95.01098146 372.96113166 95.01098146 372.96113166 93.58754806 372.96067689 C86.03401954 372.95822797 78.48049108 372.95561638 70.92696262 372.95299276 C41.46080825 372.94288949 11.99471087 372.95124752 -17.47143555 372.9744873 C-50.58028503 373.00055784 -83.68910021 373.01340847 -116.79796034 373.00629956 C-120.3279947 373.0055835 -123.85802906 373.00490911 -127.38806343 373.00425911 C-128.25724158 373.0040893 -129.12641972 373.00391949 -130.0219366 373.00374454 C-143.14336499 373.0014414 -156.26476154 373.0094192 -169.38618279 373.02255058 C-184.30767311 373.03745681 -199.22908877 373.03831164 -214.15057748 373.02047967 C-222.50006732 373.01091239 -230.84938305 373.01236025 -239.19886128 373.02971436 C-245.43339927 373.04143196 -251.66774192 373.03223557 -257.90226311 373.01489199 C-260.42434971 373.01111608 -262.94645732 373.01409945 -265.46852528 373.02450364 C-268.89682217 373.03764126 -272.32419846 373.0261176 -275.75245571 373.00850582 C-276.73143771 373.01815633 -277.71041972 373.02780685 -278.71906784 373.0377498 C-289.48724978 372.92418185 -298.48209565 369.07912063 -306.91699219 362.50793457 C-307.5215625 362.05289551 -308.12613281 361.59785645 -308.74902344 361.12902832 C-318.57616933 352.63287284 -322.79743322 337.71959086 -327.58804321 326.02871704 C-328.13669459 324.69123414 -328.68919368 323.35532258 -329.24569702 322.02108765 C-334.93119128 308.32560625 -334.93119128 308.32560625 -333.91699219 301.50793457 C-332.37725466 298.41082894 -330.04089281 296.06988488 -326.91699219 294.50793457 C-324.81324222 294.35352248 -322.705041 294.25800818 -320.59667969 294.19152832 C-319.33984375 294.14963379 -318.08300781 294.10773926 -316.78808594 294.0645752 C-315.469375 294.02525879 -314.15066406 293.98594238 -312.79199219 293.94543457 C-311.45213468 293.90223945 -310.11229062 293.85862484 -308.77246094 293.8145752 C-305.48741404 293.70822476 -302.20228938 293.60619649 -298.91699219 293.50793457 C-298.42888062 292.18620239 -298.42888062 292.18620239 -297.9309082 290.83776855 C-297.49447998 289.67575928 -297.05805176 288.51375 -296.60839844 287.31652832 C-295.96559937 285.59260864 -295.96559937 285.59260864 -295.30981445 283.8338623 C-288.9296035 268.59852245 -273.97159532 254.99447107 -262.70605469 243.19152832 C-262.05378906 242.49156738 -261.40152344 241.79160645 -260.72949219 241.07043457 C-260.1584375 240.47359863 -259.58738281 239.8767627 -258.99902344 239.26184082 C-257.69697204 237.55436054 -257.69697204 237.55436054 -258.14746094 235.44152832 C-258.91821652 233.35388311 -258.91821652 233.35388311 -260.41699219 231.00793457 C-263.79775528 225.37332941 -263.51612201 218.90138841 -262.91699219 212.50793457 C-261.97539261 209.5270157 -260.70017378 207.06713038 -258.91699219 204.50793457 C-258.38332031 203.73965332 -257.84964844 202.97137207 -257.29980469 202.17980957 C-254.09892113 198.59062211 -250.45243594 195.96986294 -246.54199219 193.19543457 C-245.73906738 192.62220459 -244.93614258 192.04897461 -244.10888672 191.45837402 C-237.28059068 186.6468199 -230.31466789 182.40188508 -222.91699219 178.50793457 C-222.29646973 178.17455078 -221.67594727 177.84116699 -221.03662109 177.49768066 C-206.3367525 169.6289492 -185.88447692 159.50793457 -168.91699219 159.50793457 C-168.87574219 158.51793457 -168.83449219 157.52793457 -168.79199219 156.50793457 C-168.02293419 151.43215181 -165.43677566 148.12164851 -161.91699219 144.50793457 C-155.3105196 139.69669087 -148.15126941 136.84467004 -140.41699219 134.38293457 C-139.36890381 134.04310547 -138.32081543 133.70327637 -137.2409668 133.35314941 C-128.23532999 130.4933672 -119.22801981 128.11941636 -109.91699219 126.50793457 C-109.25812012 126.39224121 -108.59924805 126.27654785 -107.92041016 126.15734863 C-84.70612796 122.29116969 -59.3655459 123.26132681 -36.57275391 129.06726074 C-35.50870331 129.33713303 -34.44465271 129.60700531 -33.34835815 129.88505554 C-32.54600739 130.09060562 -31.74365662 130.2961557 -30.91699219 130.50793457 C-31.00690933 129.35694275 -31.09682648 128.20595093 -31.18946838 127.02008057 C-32.03859475 116.13462632 -32.87759261 105.2484317 -33.70686436 94.36144638 C-34.1334472 88.76534093 -34.56350409 83.16954917 -35.00170898 77.57434082 C-35.42503963 72.16736833 -35.83897198 66.75974863 -36.24659538 61.35157013 C-36.40316202 59.29582606 -36.56302472 57.24033009 -36.72635078 55.185112 C-39.1397593 24.73843691 -39.1397593 24.73843691 -30.91699219 12.50793457 C-22.49399747 2.67039112 -12.59134247 -0.10509144 0 0 Z M-12.72949219 25.69543457 C-17.18218746 31.42032849 -15.91906871 38.78654409 -15.45483398 45.66247559 C-15.39301437 46.65847778 -15.33119476 47.65447998 -15.26750183 48.68066406 C-15.06027458 51.95845466 -14.84028848 55.23516056 -14.61621094 58.51184082 C-14.53951487 59.63428633 -14.46281879 60.75673183 -14.3837986 61.91319084 C-13.97467903 67.84719601 -13.5530317 73.78018844 -13.1237793 79.71276855 C-12.77154199 84.61833124 -12.44623473 89.52456135 -12.14428711 94.43347168 C-11.7789043 100.37127337 -11.36723408 106.30415007 -10.92215919 112.23649406 C-10.76053325 114.49399326 -10.61514482 116.75271669 -10.4864254 119.01233101 C-10.38886375 130.84516205 -10.38886375 130.84516205 -5.63760376 141.09286499 C-3.053118 142.72000974 -3.053118 142.72000974 -0.34919739 143.56004333 C4.02470275 145.26466168 6.07622576 149.44013312 8.08300781 153.50793457 C8.24027344 154.5211377 8.39753906 155.53434082 8.55957031 156.57824707 C9.76515242 159.61078804 9.76515242 159.61078804 12.16601562 160.51281738 C15.0759472 161.42223779 17.99397125 162.16927335 20.95800781 162.88293457 C23.15668321 163.46900723 25.35328891 164.06289474 27.54785156 164.66418457 C29.20083252 165.11664551 29.20083252 165.11664551 30.88720703 165.57824707 C54.18540162 172.35590368 85.32599206 186.4246074 100.08300781 206.50793457 C103.00845903 211.87853904 104.00714394 217.46627043 103.08300781 223.50793457 C101.62582471 228.21470441 99.81701362 232.40692586 97.08300781 236.50793457 C98.22576172 237.72416504 98.22576172 237.72416504 99.39160156 238.96496582 C105.13503527 245.11203762 110.67829384 251.3273763 115.93457031 257.90246582 C118.07712769 260.50080358 120.3346918 262.93410054 122.64550781 265.38293457 C130.59138732 274.14840654 135.29190542 283.44258462 139.08300781 294.50793457 C140.29883545 294.51204346 141.51466309 294.51615234 142.76733398 294.52038574 C147.28713111 294.54219127 151.80605945 294.5964957 156.32543945 294.66052246 C158.2797817 294.68369008 160.23424859 294.69809528 162.1887207 294.70349121 C165.00192824 294.71278989 167.81317893 294.75379932 170.62597656 294.80090332 C171.49699509 294.79697067 172.36801361 294.79303802 173.26542664 294.78898621 C177.6502825 294.89396483 179.53460634 295.08739484 183.11547852 297.83337402 C185.57608632 301.17820073 186.00921479 303.3755251 186.08300781 307.50793457 C185.52050781 310.25793457 185.52050781 310.25793457 184.08300781 312.50793457 C179.3467827 315.48676073 175.23028797 315.93764973 169.7702961 315.89269543 C168.94451179 315.89784533 168.11872749 315.90299524 167.26791942 315.9083012 C164.49479644 315.92194066 161.7221454 315.9142293 158.94900513 315.90666199 C156.94329475 315.91210009 154.93758758 315.91885108 152.9318856 315.92680389 C147.41564118 315.94486759 141.89953111 315.94426742 136.38326406 315.94067442 C130.43646145 315.9400517 124.48970437 315.95666006 118.54292297 315.97119141 C108.23814806 315.99400605 97.93340322 316.00597165 87.62860489 316.01032066 C76.82087672 316.01492736 66.0131838 316.02571164 55.20547104 316.04474831 C54.53350529 316.04592843 53.86153954 316.04710856 53.16921119 316.04832445 C49.756643 316.05434986 46.34407501 316.06048566 42.9315071 316.06666396 C18.75968592 316.11022735 -5.4121344 316.13993698 -29.58398438 316.16149902 C-53.06674465 316.18247808 -76.54948393 316.20973256 -100.03222656 316.2454834 C-100.75605452 316.24658288 -101.47988248 316.24768235 -102.22564462 316.24881515 C-109.49461605 316.25986347 -116.76358727 316.27103938 -124.03255836 316.28230877 C-138.84031816 316.30526295 -153.6480792 316.32736556 -168.45584106 316.34895325 C-169.13667945 316.34994687 -169.81751784 316.35094049 -170.51898769 316.35196421 C-215.9849722 316.41821989 -261.45098072 316.46456247 -306.91699219 316.50793457 C-305.56606951 320.20469793 -304.18201402 323.88821328 -302.79199219 327.57043457 C-302.22351563 329.12794434 -302.22351563 329.12794434 -301.64355469 330.71691895 C-298.83961114 338.07727076 -295.48748731 345.44466804 -287.91699219 348.88293457 C-287.29824219 349.17941895 -286.67949219 349.47590332 -286.04199219 349.78137207 C-280.03813353 351.83416198 -273.90771957 351.64992602 -267.64601421 351.63656902 C-266.08974712 351.63919858 -266.08974712 351.63919858 -264.5020403 351.64188126 C-261.00872714 351.646551 -257.51545542 351.64407324 -254.0221405 351.64164734 C-251.49899824 351.64351482 -248.97585626 351.64581527 -246.45271474 351.64851266 C-240.95818338 351.65336285 -235.46366463 351.65508387 -229.96913147 351.65405655 C-221.79847449 351.6525326 -213.62782728 351.65669121 -205.4571722 351.66193117 C-190.0157851 351.67160717 -174.57440132 351.67441551 -159.13301154 351.67498823 C-147.20960287 351.67544759 -135.2861955 351.67750495 -123.36278725 351.68068886 C-119.93196672 351.68158639 -116.5011462 351.6824762 -113.07032567 351.68336374 C-112.21744004 351.68358478 -111.36455442 351.68380583 -110.48582377 351.68403358 C-86.49249575 351.69018863 -62.49916819 351.69413405 -38.50583935 351.6936903 C-37.14865822 351.69366693 -37.14865822 351.69366693 -35.7640593 351.69364309 C-31.17810776 351.69355998 -26.59215622 351.69346094 -22.00620469 351.69335838 C-21.09540043 351.69333844 -20.18459617 351.69331849 -19.24619178 351.69329794 C-17.40432341 351.69325751 -15.56245505 351.69321571 -13.72058668 351.69317255 C14.93929168 351.69255972 43.59915822 351.70006738 72.2590332 351.71374512 C104.45004503 351.72910169 136.64104909 351.7377116 168.83206481 351.7367819 C172.2638284 351.73670726 175.69559199 351.73665856 179.12735558 351.73662758 C179.97235786 351.73661592 180.81736015 351.73660427 181.68796856 351.73659226 C195.29304384 351.73656147 208.89810885 351.74295046 222.50318108 351.75155984 C236.17362095 351.76003174 249.84404579 351.7610299 263.51448683 351.75445052 C271.63770957 351.75075183 279.76088668 351.75259675 287.8841046 351.76239286 C293.94680346 351.7690869 300.00944834 351.76534819 306.07214781 351.75751964 C308.52702517 351.75597713 310.98190743 351.7578289 313.436779 351.76337972 C316.7694363 351.77041746 320.10185724 351.7651635 323.43450642 351.75682354 C324.39100762 351.76179172 325.34750882 351.7667599 326.33299491 351.77187863 C335.55869864 351.72295839 343.63366372 350.80969806 350.51635742 344.11340332 C354.92230952 339.29812312 357.18854016 334.26648131 359.45800781 328.19543457 C359.98974609 326.83708496 359.98974609 326.83708496 360.53222656 325.45129395 C362.38257215 321.09984361 362.38257215 321.09984361 363.08300781 316.50793457 C361.97036717 316.50573473 361.97036717 316.50573473 360.83524895 316.50349045 C342.78235836 316.46643064 324.72966141 316.40742693 306.67692375 316.32403183 C297.94672209 316.28423101 289.21661071 316.25184384 280.48632812 316.23693848 C272.87655439 316.22392734 265.2669792 316.19697654 257.65731728 316.1533215 C253.62841857 316.13069444 249.59976486 316.11502462 245.57079697 316.11605072 C241.77692503 316.11679661 237.98359494 316.09887505 234.1898632 316.06676674 C232.79915908 316.05826288 231.40839421 316.05652118 230.0176754 316.06213188 C216.7575678 316.10849389 216.7575678 316.10849389 212.08300781 311.50793457 C210.64716641 307.20041036 210.79426402 303.34118524 211.49707031 298.87902832 C213.08300781 296.50793457 213.08300781 296.50793457 214.97729492 295.8927002 C217.53113195 295.47203713 220.06830305 295.18444206 222.64550781 294.94543457 C233.07379869 293.90183244 242.45378985 291.07290649 250.08300781 283.50793457 C254.75241705 277.05773067 258.08905505 270.59975913 258.80891418 262.61555481 C258.91930118 261.42370921 259.02968817 260.23186361 259.14342022 259.00390148 C259.25601586 257.69336961 259.36861151 256.38283773 259.48461914 255.03259277 C259.61119641 253.61620946 259.73813167 252.19985809 259.86539173 250.78353596 C261.53782565 231.95206013 262.96816872 213.09915215 264.41612601 194.24940276 C264.74329794 189.99387131 265.07206203 185.73846338 265.40076762 181.48305017 C266.17564859 171.45059949 266.9477279 161.41793599 267.71801758 151.38513184 C268.5096953 141.07447965 269.30648948 130.76423145 270.10566586 120.45415801 C270.79665346 111.53729931 271.48437773 102.62019293 272.16952449 93.70288354 C272.5767102 88.40380085 272.98512756 83.10482069 273.39676476 77.80608177 C273.78222049 72.84267523 274.16358652 67.8789708 274.5418663 62.91501236 C274.68069401 61.10214063 274.82093818 59.2893767 274.96275139 57.47673607 C277.08485805 41.91241414 277.08485805 41.91241414 274.52050781 27.00793457 C270.26975378 22.64818685 265.97607489 21.36209085 260.03736019 21.13320446 C258.04807125 21.11807056 256.05861542 21.11936149 254.06932068 21.13371277 C252.41898593 21.12775116 252.41898593 21.12775116 250.73531109 21.12166911 C247.05347061 21.11205473 243.37201518 21.12385944 239.69018555 21.13562012 C237.04866504 21.13319189 234.4071699 21.12958856 231.76565552 21.1245575 C225.33894693 21.11508119 218.91235082 21.1216589 212.48565059 21.13382044 C204.99960074 21.14745774 197.51357752 21.14580107 190.0275184 21.14368711 C176.67009662 21.14049898 163.31272822 21.1521552 149.95532227 21.17175293 C136.9969724 21.19076014 124.03868507 21.19783926 111.08032227 21.19226074 C96.96444205 21.18620188 82.84858931 21.18638169 68.73271137 21.19774657 C67.2273614 21.19895385 65.72201143 21.20015984 64.21666145 21.20136452 C63.47602498 21.20196806 62.7353885 21.20257159 61.9723085 21.20319342 C56.75524736 21.20707121 51.53819645 21.2066795 46.32113457 21.20477867 C39.96331628 21.20265579 33.60555273 21.20788792 27.24774986 21.22239222 C24.00447711 21.22963176 20.7613002 21.23264552 17.51801872 21.22914886 C14.00182766 21.22593274 10.48587759 21.23499486 6.9697113 21.24723816 C5.9452981 21.24345884 4.92088489 21.23967951 3.86542886 21.23578566 C-2.55214214 21.2754067 -7.49602932 21.62496345 -12.72949219 25.69543457 Z M305.08300781 70.50793457 C304.23585205 70.84341309 303.38869629 71.1788916 302.51586914 71.52453613 C298.48454584 73.46054008 295.66935593 74.93716458 294.05883789 79.25158691 C293.53311363 82.88311568 293.32769417 86.47182723 293.20800781 90.13293457 C293.12656802 91.53907032 293.04005415 92.9449196 292.94897461 94.35046387 C292.74718809 97.53968002 292.57064214 100.72920549 292.40576172 103.92053223 C292.05646446 110.32673384 291.54574795 116.71858792 291.03222656 123.11340332 C290.89167847 124.86965027 290.89167847 124.86965027 290.74829102 126.66137695 C290.55835978 129.03258792 290.36823528 131.40378341 290.17791748 133.77496338 C289.72323874 139.48316168 289.28498516 145.19254499 288.85253906 150.90246582 C288.77460617 151.91463669 288.69667328 152.92680756 288.61637878 153.96965027 C288.54582779 154.90501114 288.47527679 155.84037201 288.40258789 156.80407715 C288.34057693 157.61943436 288.27856598 158.43479156 288.2146759 159.27485657 C288.09235485 161.34940969 288.08300781 163.42977839 288.08300781 165.50793457 C288.74300781 165.50793457 289.40300781 165.50793457 290.08300781 165.50793457 C290.41300781 166.49793457 290.74300781 167.48793457 291.08300781 168.50793457 C299.5274047 176.40481445 310.76347597 181.24700836 322.32128906 181.60949707 C336.30980885 180.9058829 347.43996566 176.13793399 357.37207031 166.22277832 C368.16873378 153.78841871 369.26098065 139.9057252 369.27050781 124.19543457 C369.28275391 123.1442041 369.295 122.09297363 369.30761719 121.0098877 C369.32636866 110.84034078 368.55485464 101.23486268 363.77050781 92.13293457 C363.196875 91.0114502 362.62324219 89.88996582 362.03222656 88.73449707 C355.66646772 78.19718884 345.89007265 71.79155003 334.33300781 67.92199707 C324.77090176 66.16230394 314.02163193 66.72415444 305.08300781 70.50793457 Z M-146.91699219 160.50793457 C-148.41340216 164.99716448 -147.2704325 169.31181629 -146.58886719 173.9083252 C-145.74413667 180.18267225 -145.24861037 186.08119739 -148.97949219 191.50793457 C-153.0479369 194.27793948 -155.05143925 194.04855156 -159.91699219 193.50793457 C-163.33737879 192.33780231 -163.83239701 191.63482734 -165.91699219 188.50793457 C-166.6186386 186.51993639 -167.29072091 184.52094941 -167.91699219 182.50793457 C-174.23852143 183.08527655 -179.85231942 184.53295891 -185.85449219 186.57043457 C-187.23157349 187.03679321 -187.23157349 187.03679321 -188.63647461 187.51257324 C-207.96975963 194.23042524 -225.50578213 203.9904749 -240.91699219 217.50793457 C-240.29194208 220.66958239 -239.21707974 222.87660771 -237.44287109 225.5567627 C-236.92304657 226.3479097 -236.40322205 227.1390567 -235.86764526 227.95417786 C-235.29869537 228.80723007 -234.72974548 229.66028229 -234.14355469 230.53918457 C-233.55196564 231.43554123 -232.96037659 232.33189789 -232.3508606 233.25541687 C-230.42033613 236.17678531 -228.48143732 239.09248234 -226.54199219 242.00793457 C-225.21909942 244.00488648 -223.89650916 246.00203883 -222.57421875 247.99938965 C-214.99438719 259.43558084 -207.3709633 270.8424584 -199.66699219 282.19543457 C-199.26812805 282.78324707 -198.86926392 283.37105957 -198.45831299 283.97668457 C-194.99956288 289.49192352 -194.99956288 289.49192352 -190.91699219 294.50793457 C-188.17805134 294.59652103 -185.46445949 294.62316936 -182.72558594 294.60559082 C-181.49582787 294.6034684 -181.49582787 294.6034684 -180.2412262 294.6013031 C-177.61227836 294.59568746 -174.98341445 294.58313236 -172.35449219 294.57043457 C-170.57649862 294.56542158 -168.79850373 294.56085833 -167.02050781 294.5567627 C-162.65263674 294.54571296 -158.28482871 294.52843788 -153.91699219 294.50793457 C-154.00468872 293.77179428 -154.09238525 293.03565399 -154.18273926 292.27720642 C-155.01091997 285.31912691 -155.83516252 278.36059463 -156.65505219 271.40153408 C-157.0766405 267.8243556 -157.49971688 264.24736656 -157.92626953 260.67077637 C-158.3383253 257.21526474 -158.74637347 253.75930074 -159.15171814 250.30299568 C-159.38164285 248.35132473 -159.61565027 246.40013615 -159.84973145 244.44895935 C-161.82010007 227.56751887 -161.82010007 227.56751887 -157.91699219 222.50793457 C-154.89491824 220.4932186 -153.9997252 220.17074423 -150.54199219 220.07043457 C-149.41664063 220.01049316 -149.41664063 220.01049316 -148.26855469 219.94934082 C-144.70802025 220.79511561 -143.25710724 222.75489947 -140.91699219 225.50793457 C-140.01873779 228.50524902 -140.01873779 228.50524902 -139.63085938 231.87121582 C-139.47429871 233.13602783 -139.31773804 234.40083984 -139.15643311 235.70397949 C-139.0085134 237.07608837 -138.86100128 238.44824123 -138.71386719 239.82043457 C-138.5459915 241.23643794 -138.37613987 242.65220831 -138.20440674 244.06774902 C-137.75843156 247.78573991 -137.33808319 251.50618256 -136.92346191 255.2277832 C-136.49829243 259.00776456 -136.05102213 262.78511425 -135.60449219 266.56262207 C-135.1024445 270.81152293 -134.6022699 275.06049103 -134.12176514 279.31188965 C-133.97781311 280.57670166 -133.83386108 281.84151367 -133.68554688 283.14465332 C-133.56072937 284.25542236 -133.43591187 285.36619141 -133.30731201 286.51062012 C-132.95791003 289.19372139 -132.44763455 291.85472277 -131.91699219 294.50793457 C-97.26699219 294.50793457 -62.61699219 294.50793457 -26.91699219 294.50793457 C-24.11604398 271.40707413 -24.11604398 271.40707413 -21.32440758 248.30509377 C-20.32753553 240.04213685 -19.32925418 231.77935823 -18.32568359 223.51721191 C-17.53105033 216.97515663 -16.73977641 210.43270515 -15.95248652 203.88976192 C-15.53574203 200.42729479 -15.11735023 196.96504517 -14.69493103 193.50326538 C-14.22273652 189.63304615 -13.75804447 185.76194581 -13.29394531 181.89074707 C-13.0835537 180.18062691 -13.0835537 180.18062691 -12.86891174 178.43595886 C-12.19313776 172.74562645 -11.76412954 167.23822391 -11.91699219 161.50793457 C-23.12831978 155.17461249 -35.28658215 151.9349223 -47.79199219 149.25793457 C-48.55181396 149.0947876 -49.31163574 148.93164062 -50.09448242 148.7635498 C-80.76157125 142.51710429 -118.85000203 145.70603486 -146.91699219 160.50793457 Z M8.08300781 181.50793457 C6.38515428 195.6503444 4.69002507 209.79307847 2.99803925 223.93619156 C2.21234262 230.50306219 1.42576935 237.06982536 0.63720703 243.63635254 C-0.1234591 249.9708525 -0.88184125 256.30562206 -1.6386261 262.64058685 C-1.9280681 265.06004371 -2.21833942 267.47940151 -2.50944519 269.89865875 C-2.9163562 273.28150689 -3.32034374 276.66469207 -3.72363281 280.04797363 C-3.84519241 281.05282303 -3.96675201 282.05767242 -4.09199524 283.0929718 C-4.20137924 284.01561325 -4.31076324 284.9382547 -4.42346191 285.88885498 C-4.51932838 286.68897129 -4.61519485 287.4890876 -4.71396637 288.31344986 C-4.90428665 290.37060172 -4.91699219 292.44199759 -4.91699219 294.50793457 C6.80905173 297.23299425 20.7599573 299.82800849 32.08300781 294.50793457 C43.82426698 285.54174542 50.83041092 269.87896345 57.82958984 257.22619629 C60.83208846 251.85080792 64.12466314 246.74052944 67.61035156 241.66809082 C68.3734111 240.55335892 68.3734111 240.55335892 69.15188599 239.41610718 C70.60521528 237.29888618 72.06270422 235.18457619 73.52050781 233.07043457 C75.27325589 230.52492195 77.00009165 227.96519298 78.70410156 225.38684082 C79.40978271 224.34084717 80.11546387 223.29485352 80.8425293 222.21716309 C82.36455132 219.64563865 82.36455132 219.64563865 81.515625 217.31628418 C78.86892395 213.975433 75.40406163 211.872625 71.89550781 209.50793457 C71.05616699 208.94123047 70.21682617 208.37452637 69.35205078 207.79064941 C51.79093613 196.19162171 33.04947949 187.01832041 12.42147827 182.46548462 C11.6094866 182.28598833 10.79749493 182.10649204 9.96089745 181.92155647 C9.34119387 181.78506124 8.72149029 181.64856602 8.08300781 181.50793457 Z M-246.91699219 258.32043457 C-250.74064674 262.19081403 -254.11219057 266.36560487 -257.51464844 270.60559082 C-259.96920483 273.57101423 -262.54061761 276.38174055 -265.16699219 279.19543457 C-271.86214455 285.9657224 -271.86214455 285.9657224 -274.91699219 294.50793457 C-256.10699219 294.50793457 -237.29699219 294.50793457 -217.91699219 294.50793457 C-221.06171066 288.84744133 -224.15981125 283.41784004 -227.74511719 278.06652832 C-228.17959167 277.4133815 -228.61406616 276.76023468 -229.06170654 276.08729553 C-229.9674995 274.72759649 -230.87500044 273.36903377 -231.78417969 272.01159668 C-233.18265704 269.92202856 -234.57353973 267.82754123 -235.96386719 265.73254395 C-236.84883918 264.40607529 -237.73423972 263.07989243 -238.62011719 261.75402832 C-239.03674622 261.12604843 -239.45337524 260.49806854 -239.88262939 259.85105896 C-240.86784124 258.38536589 -241.88866156 256.94370429 -242.91699219 255.50793457 C-244.70890536 255.50793457 -245.69851963 257.11606471 -246.91699219 258.32043457 Z M84.08300781 255.50793457 C82.60799379 257.59240281 81.18755341 259.69089223 79.78613281 261.82434082 C79.35548523 262.47362045 78.92483765 263.12290009 78.48114014 263.79185486 C77.09516346 265.88257366 75.71386999 267.97633499 74.33300781 270.07043457 C72.96568755 272.13903756 71.59736647 274.20696763 70.22772217 276.27403259 C69.37467639 277.56197512 68.52306247 278.85086762 67.67315674 280.1408844 C65.60960339 283.26158856 63.49676495 286.32061036 61.28125 289.33581543 C58.89314508 292.13868574 58.89314508 292.13868574 59.08300781 294.50793457 C77.89300781 294.50793457 96.70300781 294.50793457 116.08300781 294.50793457 C112.5872951 287.35385809 112.5872951 287.35385809 107.89550781 281.69543457 C104.6503048 278.22715704 101.56255988 274.70758854 98.58300781 271.00793457 C94.26934387 265.68420495 89.86084001 260.42440922 85.08300781 255.50793457 C84.75300781 255.50793457 84.42300781 255.50793457 84.08300781 255.50793457 Z " fill="#492D1E" transform="translate(970.9169921875,685.4920654296875)"/>
<path d="M0 0 C5.53913448 5.38911625 7.69955444 10.18699176 8.125 17.9375 C7.74184639 28.6287217 2.27805449 36.70374424 -4.91015625 44.28515625 C-9.4646784 48.50993924 -14.41463412 52.12516248 -19.5 55.6875 C-18.59378906 56.03941406 -17.68757813 56.39132812 -16.75390625 56.75390625 C-8.10111506 60.26080469 -0.20234647 63.75103803 5.5625 71.4375 C7.48867684 78.11491305 7.47014473 84.34337978 4.625 90.75 C-5.87404694 109.23300185 -28.2275927 118.99339591 -47.72265625 124.65234375 C-58.03639393 127.47875584 -71.60538747 130.77501547 -81.8125 126.25 C-88.47511024 122.16787556 -97.8437107 115.0546014 -100.21484375 107.37109375 C-100.82071713 101.25921315 -100.82071713 101.25921315 -99.0625 98.125 C-98.546875 97.650625 -98.03125 97.17625 -97.5 96.6875 C-91.69481029 97.11751405 -87.19597175 98.44102494 -81.89453125 100.84765625 C-79.28406743 101.76323492 -77.24577048 101.83868807 -74.5 101.6875 C-75.31404297 101.03394531 -75.31404297 101.03394531 -76.14453125 100.3671875 C-84.213301 93.65048187 -84.213301 93.65048187 -85.5 88.6875 C-84.6858399 79.32336921 -82.28908406 70.16766989 -80.0625 61.0625 C-72.57260597 36.46604107 -72.57260597 36.46604107 -74.77734375 12.359375 C-76.27361994 10.38385142 -77.86293044 8.5460299 -79.5 6.6875 C-81.04082222 3.80683236 -81.53311203 2.36629661 -81.375 -0.875 C-79.78309037 -5.3096054 -77.35721034 -6.89198172 -73.1875 -8.9375 C-52.12066308 -15.95977897 -17.74644791 -14.32112248 0 0 Z M-52.5 16.6875 C-52.5 19.93676601 -52.09762279 20.50819628 -50.4375 23.125 C-47.5635336 28.6098232 -48.60784392 33.75871734 -49.5 39.6875 C-49.60054687 40.45449219 -49.70109375 41.22148438 -49.8046875 42.01171875 C-50.01377214 43.57351765 -50.25242875 45.13133784 -50.5 46.6875 C-32.22574294 38.21999076 -32.22574294 38.21999076 -19.5 23.6875 C-18.99992206 20.14536015 -18.99992206 20.14536015 -19.5 16.6875 C-22.28173851 13.97467844 -24.28462887 13.27592504 -28.125 13.3125 C-36.34125636 13.51371444 -44.43843177 15.1975732 -52.5 16.6875 Z M-55.5 64.6875 C-58.47 76.5675 -61.44 88.4475 -64.5 100.6875 C-57.95109269 99.86888659 -53.00192178 98.78188178 -46.9375 96.625 C-46.07068604 96.31844482 -45.20387207 96.01188965 -44.31079102 95.69604492 C-38.66614317 93.63452588 -33.25285741 91.30401861 -27.9375 88.5 C-27.32511475 88.1795874 -26.71272949 87.8591748 -26.08178711 87.52905273 C-22.79596392 85.71005628 -20.20130358 84.09652718 -18.5 80.6875 C-18.38229225 78.04673264 -18.38229225 78.04673264 -19.5 75.6875 C-25.93294672 71.28024714 -35.1928598 70.78186188 -42.77294922 69.90185547 C-43.94688232 69.74934326 -43.94688232 69.74934326 -45.14453125 69.59375 C-45.83909424 69.51447266 -46.53365723 69.43519531 -47.24926758 69.35351562 C-49.5 68.6875 -49.5 68.6875 -55.5 64.6875 Z " fill="#C9692A" transform="translate(1150.5,1180.3125)"/>
<path d="M0 0 C8.74218448 7.04958589 15.25010226 16.35747603 16.875 27.5625 C17.24982989 33.3188162 15.50037076 37.23906179 12.1796875 41.91015625 C5.00155621 50.00118577 -6.57017031 54.01653153 -17.0625 55.4375 C-19.67877262 55.52967955 -22.26039339 55.58023775 -24.875 55.5625 C-25.5777002 55.55984131 -26.28040039 55.55718262 -27.00439453 55.55444336 C-40.06665682 55.43542159 -40.06665682 55.43542159 -44.0625 53.4375 C-44.99463141 59.69789609 -45.27177172 64.45947063 -43.0625 70.4375 C-31.82065094 73.67535975 -18.613682 70.74441585 -7.625 67.75 C-2.95008035 66.51417344 0.27244156 66.11911392 4.9375 67.4375 C6.9375 69.4375 6.9375 69.4375 7.3125 72.6875 C6.85176863 77.29481369 6.02688138 78.98033513 2.9375 82.4375 C-10.54118386 92.46524068 -25.73427697 94.694868 -42.0625 93.4375 C-50.00529092 91.92718695 -55.52059765 88.20318463 -61.0625 82.4375 C-62.17625 81.2928125 -62.17625 81.2928125 -63.3125 80.125 C-70.20328013 69.54273052 -70.64427874 58.0483665 -68.40234375 45.84375 C-65.10437733 34.07957541 -58.90150894 23.7130694 -51.0625 14.4375 C-50.55460937 13.77363281 -50.04671875 13.10976562 -49.5234375 12.42578125 C-37.48858593 -2.66224696 -17.38610905 -12.01036496 0 0 Z M-32.328125 30.21875 C-33.90466997 32.23559132 -35.02466791 34.10767286 -36.0625 36.4375 C-21.23737329 37.15258792 -21.23737329 37.15258792 -8.0625 31.4375 C-7.36086159 30.12223358 -6.68878324 28.79027179 -6.0625 27.4375 C-7.01671808 26.28823734 -7.97602045 25.14319459 -8.9375 24 C-9.47117187 23.36191406 -10.00484375 22.72382812 -10.5546875 22.06640625 C-12.63117783 19.82315115 -13.75622004 19.47230454 -16.8125 19.125 C-23.96077274 19.81233392 -27.82001933 25.11655288 -32.328125 30.21875 Z " fill="#C9692A" transform="translate(1377.0625,1213.5625)"/>
<path d="M0 0 C6.1695686 1.02826143 11.22678296 4.97115071 15.3125 9.625 C20.07590096 16.40923774 20.06509414 22.7725354 18.81640625 30.796875 C18.53780645 32.30480901 18.24393791 33.80997592 17.9375 35.3125 C17.67960693 36.5811792 17.67960693 36.5811792 17.41650391 37.87548828 C14.05158749 53.45175015 8.75439927 68.59353886 3.63671875 83.66796875 C3.41058899 84.33652893 3.18445923 85.00508911 2.95147705 85.69390869 C1.86449161 88.90565629 0.76731151 92.1125897 -0.35009766 95.31396484 C-2.87030517 102.68315346 -4.62215419 109.83572768 -5.625 117.5625 C7.0539374 116.66924153 19.3238172 114.99709755 31.75756836 112.32739258 C48.20708173 108.80678818 48.20708173 108.80678818 51.5 110.9375 C53.05637123 115.60661369 52.49206982 119.99583726 50.53515625 124.4921875 C43.95857123 135.02408522 29.86301995 138.40829908 18.54296875 141.28125 C4.27763883 144.33650176 -10.61998044 145.96521056 -23.75 138.875 C-28.1964793 135.29848405 -31.80734753 131.01545741 -33.625 125.5625 C-34.45055511 116.92175331 -32.63073598 109.16556212 -30.375 100.875 C-30.02187003 99.54031503 -29.66918134 98.20551324 -29.31689453 96.87060547 C-26.06750847 84.69620347 -22.37933638 72.65264042 -18.71258545 60.59906006 C-10.51940779 33.83747654 -10.51940779 33.83747654 -6.14453125 6.2578125 C-5.36492234 2.21322492 -3.98945197 0.85488257 0 0 Z " fill="#C9692A" transform="translate(554.625,1163.4375)"/>
<path d="M0 0 C6.32117851 2.24333698 11.57565651 6.89056134 16.04296875 11.7734375 C18.54320402 17.60731979 17.59475541 23.05153292 16.33203125 29.1328125 C16.14979004 30.01807617 15.96754883 30.90333984 15.77978516 31.81542969 C15.63976074 32.48219727 15.49973633 33.14896484 15.35546875 33.8359375 C15.9602002 33.82022705 16.56493164 33.8045166 17.18798828 33.78833008 C19.95205171 33.7256187 22.71596496 33.68683339 25.48046875 33.6484375 C26.43179687 33.62330078 27.383125 33.59816406 28.36328125 33.57226562 C33.77102583 33.51593495 37.73074727 33.67483097 42.35546875 36.8359375 C43.54296875 39.2109375 43.54296875 39.2109375 43.35546875 41.8359375 C38.92140655 47.65564413 33.09156123 49.58493264 26.18359375 50.94140625 C25.27222656 51.12123047 24.36085938 51.30105469 23.421875 51.48632812 C21.53266333 51.84661468 19.63913892 52.18493191 17.7421875 52.50195312 C16.83597656 52.68822266 15.92976563 52.87449219 14.99609375 53.06640625 C13.76681152 53.28913208 13.76681152 53.28913208 12.51269531 53.51635742 C9.04600942 55.63693656 8.46752462 59.13286168 7.35546875 62.8359375 C6.88550171 64.26974857 6.41536691 65.70350466 5.94506836 67.13720703 C5.46379208 68.66369897 4.98479002 70.19090939 4.5078125 71.71875 C4.25044815 72.53665009 3.9930838 73.35455017 3.72792053 74.19723511 C2.91420819 76.78449355 2.10346336 79.37266946 1.29296875 81.9609375 C0.47831373 84.55615772 -0.33696408 87.15118091 -1.1526947 89.74606323 C-1.6576504 91.35302444 -2.16189177 92.96021034 -2.66529846 94.56765747 C-3.95247807 98.67091344 -5.26987387 102.76087262 -6.64453125 106.8359375 C2.55762162 104.27404996 2.55762162 104.27404996 11.671875 101.421875 C12.73438477 101.07322388 12.73438477 101.07322388 13.81835938 100.7175293 C15.1940668 100.26274602 16.56665525 99.79839101 17.93554688 99.32348633 C21.76663232 98.06477056 24.49591138 97.49255565 28.35546875 98.8359375 C30.41355277 101.26821861 30.35661825 102.89571143 30.41796875 106.0859375 C27.81349184 115.27820893 19.65931037 120.24286751 11.83984375 124.9140625 C3.45086447 129.54116766 -5.06955542 131.27100759 -14.64453125 129.8359375 C-21.32480227 127.21220989 -27.1938787 122.45709806 -31.64453125 116.8359375 C-34.56788161 108.06588643 -32.04404455 99.18750654 -29.45703125 90.6484375 C-29.14113037 89.56506104 -28.82522949 88.48168457 -28.49975586 87.36547852 C-27.56599803 84.18323371 -26.61050433 81.00853617 -25.64453125 77.8359375 C-25.37318359 76.94293945 -25.10183594 76.04994141 -24.82226562 75.12988281 C-23.46467265 70.68701071 -22.074029 66.2561817 -20.64453125 61.8359375 C-21.40121094 61.990625 -22.15789062 62.1453125 -22.9375 62.3046875 C-31.00789071 63.88848712 -31.00789071 63.88848712 -34.80078125 61.44921875 C-39.77224613 57.29732507 -42.09545076 54.19905548 -43.14453125 47.7734375 C-42.64453125 44.8359375 -42.64453125 44.8359375 -40.14453125 42.7890625 C-36.37139503 40.43978287 -32.45683197 39.5465177 -28.14453125 38.6484375 C-27.41105469 38.48408203 -26.67757813 38.31972656 -25.921875 38.15039062 C-21.84779914 37.2503041 -17.76764148 36.48180445 -13.64453125 35.8359375 C-13.15917434 32.5868314 -12.68180787 29.33660589 -12.20703125 26.0859375 C-12.06579834 25.1283252 -11.92456543 24.17071289 -11.77905273 23.18408203 C-10.90656805 17.12535985 -10.28163125 11.14253733 -10.1484375 5.015625 C-9.64453125 2.8359375 -9.64453125 2.8359375 -7.83203125 1.04296875 C-5.11634895 -0.45550595 -3.03899663 -0.5131514 0 0 Z " fill="#C9692A" transform="translate(1262.64453125,1177.1640625)"/>
<path d="M0 0 C7.4395188 5.08410022 13.99185022 12.49864955 16.53125 21.265625 C19.65127984 39.46579908 14.23005154 56.43932909 4.28515625 71.6171875 C2.91061438 73.47089536 1.49253203 75.24094439 0 77 C-0.60972656 77.80953125 -1.21945312 78.6190625 -1.84765625 79.453125 C-8.25456597 87.03444104 -18.18458609 93.08997351 -28 95 C-35.92678462 95.59548505 -43.52559111 96.16497788 -50 91 C-57.39647264 84.24404664 -61.53133478 75.97590155 -62.203125 65.9765625 C-62.53072204 42.55337417 -54.09074658 22.29301807 -37.875 5.4375 C-26.80607844 -5.1501641 -13.84545484 -7.13314467 0 0 Z M-16.5625 18.125 C-25.83822463 27.53370993 -35.11295572 44.05621748 -35.1328125 57.4765625 C-35.13410156 58.311875 -35.13539063 59.1471875 -35.13671875 60.0078125 C-35.13285156 60.87148437 -35.12898437 61.73515625 -35.125 62.625 C-35.12886719 63.49640625 -35.13273438 64.3678125 -35.13671875 65.265625 C-35.13542969 66.09835937 -35.13414062 66.93109375 -35.1328125 67.7890625 C-35.13168457 68.54912598 -35.13055664 69.30918945 -35.12939453 70.09228516 C-35.1172997 72.08678495 -35.1172997 72.08678495 -34 74 C-27.57824241 72.80657602 -23.52974898 68.1311177 -19.84375 62.99609375 C-13.10223382 52.34298889 -8.844786 42.80262813 -8.75 30.125 C-8.729375 29.44308594 -8.70875 28.76117187 -8.6875 28.05859375 C-8.64891345 22.99410894 -9.74952232 19.53648922 -12 15 C-13.92872783 15 -15.23532964 16.88353731 -16.5625 18.125 Z " fill="#C9692A" transform="translate(955,1212)"/>
<path d="M0 0 C7.90957181 4.83789344 14.56192111 11.74709205 17.46484375 20.69921875 C21.42988635 37.74600773 16.6157464 54.2010646 8.25 69.125 C0.65414488 81.18559438 -9.98536904 91.33210736 -23.8828125 95.375 C-31.48799857 96.89984934 -39.37417612 97.44432449 -46.2265625 93.32421875 C-53.34124756 88.01171163 -58.09556631 81.76257373 -60 73 C-61.90538992 49.92244295 -55.64395733 29.75206277 -41.28515625 11.625 C-30.00461746 -1.33315738 -16.6475557 -7.59645745 0 0 Z M-11 16 C-15.39647657 19.3857923 -18.56957552 22.75575641 -21.5 27.5 C-21.88164307 28.10730957 -22.26328613 28.71461914 -22.65649414 29.34033203 C-30.78962652 42.56630146 -35.26969329 54.37156934 -34 70 C-33.08019545 72.82095346 -33.08019545 72.82095346 -32 75 C-21.14930577 71.17695747 -15.85623176 60.7684109 -11 51 C-6.51301908 40.33955222 -5.43999842 29.07556047 -9 18 C-9.66 17.34 -10.32 16.68 -11 16 Z " fill="#C9692A" transform="translate(681,1211)"/>
<path d="M0 0 C5.49731195 4.46520793 9.70388236 10.92414709 11.9375 17.625 C12.125 21.1875 12.125 21.1875 11.9375 24.625 C9.9375 26.625 9.9375 26.625 7.984375 26.671875 C4.45022257 26.21507979 1.34577486 25.78136059 -2 24.5 C-9.98289974 22.2191715 -17.84848621 25.11726853 -25.0625 28.625 C-26.0525 29.285 -27.0425 29.945 -28.0625 30.625 C-27.78606074 34.01873305 -27.3983534 35.3186592 -24.83984375 37.65234375 C-23.90269531 38.28269531 -22.96554687 38.91304687 -22 39.5625 C-21.00355469 40.25085937 -20.00710938 40.93921875 -18.98046875 41.6484375 C-18.01753906 42.30070312 -17.05460937 42.95296875 -16.0625 43.625 C0.12444971 55.08726146 0.12444971 55.08726146 2.9375 64.625 C3.72934503 70.28220209 3.86013573 76.02692946 0.51953125 80.9375 C-7.71516299 89.72117386 -19.05390442 95.38574359 -31.1015625 95.828125 C-45.46347647 96.07361444 -55.72209651 93.64437114 -67.875 85.8125 C-70.89458035 82.79291965 -72.76955585 79.70157684 -74.0625 75.625 C-74.0625 71.73451459 -73.90056999 69.65647075 -71.4375 66.625 C-66.97821136 64.74740478 -63.47578399 66.05661405 -59.1875 67.78125 C-57.640625 68.44640625 -57.640625 68.44640625 -56.0625 69.125 C-47.04550788 72.99739637 -36.90808954 74.18382388 -27.3125 71.625 C-26.19875 71.13 -26.19875 71.13 -25.0625 70.625 C-25.73502925 65.4217474 -27.58012495 63.81190714 -31.48828125 60.5703125 C-34.42124682 58.35389846 -37.45033662 56.30007855 -40.5 54.25 C-47.16985129 49.75872881 -55.02706402 44.38725918 -58.0625 36.625 C-58.90378582 31.33272523 -58.40228846 26.85016415 -55.36328125 22.296875 C-45.01134535 8.99168411 -16.61957087 -11.07971392 0 0 Z " fill="#C9692A" transform="translate(1471.0625,1211.375)"/>
<path d="M0 0 C5.22549767 5.01976942 10.47573904 10.63024834 11.875 17.9375 C11.33928571 24.47321429 11.33928571 24.47321429 9.875 25.9375 C5.72362355 26.27638787 2.61066281 25.97461088 -1.1875 24.375 C-4.9096041 22.86894632 -7.2037347 22.65882653 -11.125 23.9375 C-23.00423987 30.2730946 -31.91448869 43.12383792 -37.25 55.25 C-38.29067632 59.63570736 -38.39349221 63.57884633 -37.125 67.9375 C-28.98096372 72.00951814 -13.82895013 69.20757677 -5.53515625 66.7890625 C-3.84067429 66.19036385 -2.16419149 65.53943031 -0.50390625 64.8515625 C2.4568172 63.71394462 4.72723962 63.66378171 7.875 63.9375 C9.36 64.9275 9.36 64.9275 10.875 65.9375 C10.84855471 71.76868606 10.12833835 75.91861992 5.99609375 80.1796875 C-7.0638273 91.00282649 -22.2098225 96.51402422 -39.125 94.9375 C-49.79333964 91.83095224 -59.34832087 83.16116172 -65.1015625 73.8828125 C-69.05355022 66.37101905 -67.46514168 57.11117428 -65.296875 49.24609375 C-58.21587002 29.25405636 -44.59104901 9.321058 -25.34765625 -0.4765625 C-16.75226085 -4.06982554 -7.70068347 -6.4515268 0 0 Z " fill="#C9692A" transform="translate(868.125,1212.0625)"/>
<path d="M0 0 C5.22549767 5.01976942 10.47573904 10.63024834 11.875 17.9375 C11.33928571 24.47321429 11.33928571 24.47321429 9.875 25.9375 C5.72362355 26.27638787 2.61066281 25.97461088 -1.1875 24.375 C-4.9096041 22.86894632 -7.2037347 22.65882653 -11.125 23.9375 C-23.00423987 30.2730946 -31.91448869 43.12383792 -37.25 55.25 C-38.29067632 59.63570736 -38.39349221 63.57884633 -37.125 67.9375 C-28.98096372 72.00951814 -13.82895013 69.20757677 -5.53515625 66.7890625 C-3.84067429 66.19036385 -2.16419149 65.53943031 -0.50390625 64.8515625 C2.4568172 63.71394462 4.72723962 63.66378171 7.875 63.9375 C9.36 64.9275 9.36 64.9275 10.875 65.9375 C10.84855471 71.76868606 10.12833835 75.91861992 5.99609375 80.1796875 C-7.0638273 91.00282649 -22.2098225 96.51402422 -39.125 94.9375 C-49.79333964 91.83095224 -59.34832087 83.16116172 -65.1015625 73.8828125 C-69.05355022 66.37101905 -67.46514168 57.11117428 -65.296875 49.24609375 C-58.21587002 29.25405636 -44.59104901 9.321058 -25.34765625 -0.4765625 C-16.75226085 -4.06982554 -7.70068347 -6.4515268 0 0 Z " fill="#C9692A" transform="translate(775.125,1212.0625)"/>
<path d="M0 0 C4.11508479 2.36398488 5.55522678 4.56849828 7 9 C7.64735002 17.5369284 4.81726933 25.06989324 0 32 C-3.95898296 36.46182337 -8.28854438 40.55166842 -12.6965332 44.56469727 C-14.77159525 46.84963634 -15.03023931 49.19277563 -15.5 52.1875 C-14.68783862 58.38023055 -10.5062539 61.58382288 -6.15234375 65.78125 C2.18424315 73.84300437 6.51095609 82.21995576 7.16796875 94.015625 C6.741273 106.08953436 1.36668932 114.02068018 -7.1875 122 C-7.81744873 122.58370361 -8.44739746 123.16740723 -9.09643555 123.76879883 C-13.80194506 128.3115927 -15.4369491 131.95801173 -16.45703125 138.48828125 C-17.0480276 141.22217086 -17.66560836 142.35547161 -19.6875 144.25 C-23.690182 146.36462445 -26.57399389 147.12629976 -31 146 C-34.01286852 144.23002108 -36.41228811 142.17542377 -38 139 C-39.11587252 128.4632365 -36.25236587 120.11318984 -29.71484375 111.87890625 C-27.28608098 109.21777893 -24.62554813 106.91070184 -21.83203125 104.640625 C-18.98692489 102.09276856 -17.26262272 99.84414447 -16.125 96.1875 C-15.9468793 91.64542205 -17.3931828 87.92095694 -20.29248047 84.45483398 C-21.78343764 82.96663877 -23.31533599 81.54090409 -24.875 80.125 C-33.44136301 71.95197732 -37.93697265 63.76857687 -38.375 51.6875 C-38.19526553 41.89197133 -34.56380276 34.19177478 -28 27 C-25.99501676 25.1395886 -23.95454558 23.36542955 -21.83203125 21.640625 C-17.8765445 18.09839806 -16.62551037 15.19745649 -15.625 10 C-14.74524138 6.3193772 -14.20923888 4.27077973 -11.875 1.25 C-7.82425431 -0.51119378 -4.34526012 -0.78072732 0 0 Z " fill="#492D1E" transform="translate(1117,516)"/>
<path d="M0 0 C3.47241719 2.02751876 5.70279738 4.10839215 7 8 C7.24452664 12.87888862 6.72443779 16.94036639 5.375 21.625 C4.85099609 23.45417969 4.85099609 23.45417969 4.31640625 25.3203125 C2.99318799 29.0190413 1.26828587 32.1033273 -0.6875 35.5 C-2.67246451 39.56374575 -3.26674442 41.12675276 -1.9296875 45.50390625 C-0.73846975 47.94153719 0.63270765 50.24934283 2.03515625 52.5703125 C10.15225029 66.73891799 9.78247673 87.20949623 5.98046875 102.703125 C1.22194611 118.70389435 1.22194611 118.70389435 -5 123 C-9.07284906 124.18482882 -11.23611411 124.26442204 -15.25 122.875 C-18.34227609 120.76662994 -19.58599386 119.45645946 -21 116 C-22.03916402 109.76501586 -19.59862165 104.89644398 -17.19140625 99.18359375 C-12.53707317 86.74660535 -14.27049634 71.74396236 -19.39453125 59.73046875 C-21.4486858 55.51295144 -23.53944304 51.49374247 -26.375 47.75 C-28.06824168 44.88451408 -28.81078124 42.72363094 -28.65234375 39.37109375 C-27.61170063 35.58863643 -25.38263074 32.59157971 -23.20922852 29.35913086 C-19.93944322 24.3322954 -18.20064268 19.23145068 -16.63598633 13.46875 C-15.26803414 8.47286017 -13.85121262 4.49125461 -9.75 1.1875 C-6.15659371 -0.36419817 -3.88369763 -0.54508037 0 0 Z " fill="#492D1E" transform="translate(1161,527)"/>
<path d="M0 0 C5.90875499 3.78160319 9.34890769 9.22905228 11.63671875 15.83984375 C12.94513225 23.61997993 10.82554076 30.21707168 8.6875 37.6875 C8.1620459 39.55063843 8.1620459 39.55063843 7.62597656 41.45141602 C6.43812882 45.64038425 5.22143772 49.82072134 4 54 C3.77322571 54.77802979 3.54645142 55.55605957 3.31280518 56.35766602 C1.88319807 61.2554375 0.43641729 66.1477335 -1.03012085 71.03457642 C-1.50726091 72.62724804 -1.98143918 74.2208102 -2.45254517 75.8152771 C-3.1195967 78.06627701 -3.80009056 80.31278106 -4.484375 82.55859375 C-4.67897812 83.22308533 -4.87358124 83.8875769 -5.07408142 84.57220459 C-6.82394984 90.2233172 -9.01414948 94.67609965 -14 98 C-18.99273591 98.46229036 -21.99990685 98.08578614 -26 95 C-29.64426273 89.5336059 -29.06050278 84.59502573 -27.8359375 78.38671875 C-27.62969254 77.28501595 -27.62969254 77.28501595 -27.41928101 76.16105652 C-25.67412253 67.00620651 -23.65268913 57.90802874 -21.625 48.8125 C-21.22234075 46.99767386 -20.81983543 45.18281355 -20.41748047 43.36791992 C-19.63324132 39.83336038 -18.84661452 36.29934315 -18.05859375 32.765625 C-17.16039327 28.73212097 -16.27965936 24.69519063 -15.40625 20.65625 C-14.9794119 18.70827958 -14.55235611 16.76035684 -14.125 14.8125 C-13.85743896 13.55240112 -13.85743896 13.55240112 -13.58447266 12.2668457 C-12.59294703 7.81251334 -11.35785599 3.96885183 -9 0 C-5.77186065 -1.61406968 -3.45147544 -0.80534427 0 0 Z " fill="#C9692A" transform="translate(1200,1209)"/>
<path d="M0 0 C3.5625 0.3125 3.5625 0.3125 5.26089478 1.48789978 C7.05635941 4.00479592 6.94328857 5.74029424 6.95068359 8.81860352 C6.96014008 9.94730362 6.96959656 11.07600372 6.9793396 12.23890686 C6.97326691 13.46073166 6.96719421 14.68255646 6.9609375 15.94140625 C6.96380768 17.20081528 6.96667786 18.4602243 6.96963501 19.75779724 C6.97167937 22.42876868 6.96762969 25.09892074 6.95361328 27.76977539 C6.93664224 31.16671176 6.946283 34.56293063 6.96433067 37.95983982 C6.97790028 41.22455269 6.96833841 44.48918391 6.9609375 47.75390625 C6.97004654 49.56538902 6.97004654 49.56538902 6.9793396 51.41346741 C6.88450862 62.95350899 4.84490489 71.94743638 -3.4375 80.3125 C-11.18592135 86.55386101 -19.65382931 88.2069284 -29.4375 87.3125 C-39.04497988 85.25268037 -45.60944672 80.07340133 -51.4375 72.3125 C-55.69646298 65.07226294 -56.30464836 55.69971051 -54.8125 47.5 C-52.34985964 38.63773503 -46.43927782 31.84590573 -38.56640625 27.2109375 C-31.08608027 23.88289226 -22.49873413 24.24097753 -14.9375 27.0625 C-11.32170397 28.58113433 -9.15525425 30.51363999 -6.4375 33.3125 C-6.407771 31.9195874 -6.407771 31.9195874 -6.37744141 30.49853516 C-6.29941387 27.0579948 -6.21272538 23.61790109 -6.12011719 20.17773438 C-6.08180002 18.68791111 -6.04695192 17.19799446 -6.015625 15.70800781 C-5.97003271 13.56801952 -5.91203126 11.42867564 -5.8515625 9.2890625 C-5.8201416 8.00080566 -5.7887207 6.71254883 -5.75634766 5.38525391 C-5.29461634 0.93552167 -4.42833678 0.40257607 0 0 Z M-39.8125 43.75 C-43.13144895 48.98372718 -44.20284169 54.15389113 -43.4375 60.3125 C-41.29984989 66.83795824 -38.20739028 71.71448638 -32.1875 75.1875 C-26.53936706 76.88193988 -21.87069416 77.12356472 -16.25 75.25 C-11.35059246 71.87485258 -6.81642102 67.24186037 -5.4375 61.3125 C-4.43316191 53.6355047 -5.97710057 47.66624607 -10.4375 41.3125 C-15.17693099 36.82188913 -20.49368212 35.90039164 -26.80078125 35.96484375 C-32.32005977 36.69257084 -36.02928856 39.86723036 -39.8125 43.75 Z " fill="#C9692A" transform="translate(800.4375,1366.6875)"/>
<path d="M0 0 C6.32915106 4.80471038 9.86440308 12.04675687 11.06640625 19.81640625 C11.40483166 24.11362187 11.54370038 27.10046506 9.06640625 30.81640625 C7.11752319 31.1771698 7.11752319 31.1771698 4.70849609 31.15698242 C3.80771332 31.15675583 2.90693054 31.15652924 1.97885132 31.15629578 C1.00485382 31.14081192 0.03085632 31.12532806 -0.97265625 31.109375 C-1.96864838 31.10513016 -2.9646405 31.10088531 -3.99081421 31.09651184 C-7.180346 31.07968305 -10.36925208 31.04202301 -13.55859375 31.00390625 C-15.71743881 30.98886485 -17.87629375 30.9751755 -20.03515625 30.96289062 C-25.33484987 30.92976592 -30.63417712 30.87952521 -35.93359375 30.81640625 C-35.15949567 32.2687581 -34.37814191 33.71724424 -33.59375 35.1640625 C-33.1594165 35.97109619 -32.72508301 36.77812988 -32.27758789 37.60961914 C-29.80544962 41.66877588 -26.24147037 44.0061815 -21.93359375 45.81640625 C-14.80950298 46.70305141 -9.20805283 45.94904376 -2.8359375 42.72265625 C-0.34856666 41.53770751 1.36910761 41.18174775 4.06640625 41.81640625 C5.94140625 43.50390625 5.94140625 43.50390625 7.06640625 45.81640625 C7.12890625 48.31640625 7.12890625 48.31640625 6.06640625 50.81640625 C-0.64714371 56.66924468 -9.48134204 58.39289291 -18.203125 58.09765625 C-27.79382328 57.10977317 -34.44271345 53.30728655 -41.18359375 46.56640625 C-46.65773437 37.96418527 -48.05392338 29.96796452 -46.93359375 19.81640625 C-45.35560895 12.79526042 -42.60691058 6.43198605 -36.93359375 1.81640625 C-25.50969986 -5.12469383 -11.90737434 -7.28875642 0 0 Z M-32.70703125 13.8046875 C-34.3581508 16.34386452 -34.3581508 16.34386452 -35.93359375 21.81640625 C-24.05359375 21.81640625 -12.17359375 21.81640625 0.06640625 21.81640625 C-2.57525718 12.85527571 -2.57525718 12.85527571 -8.93359375 7.81640625 C-18.30103504 3.80178856 -26.28958407 6.11450638 -32.70703125 13.8046875 Z " fill="#C9692A" transform="translate(869.93359375,1396.18359375)"/>
<path d="M0 0 C6.21940526 4.90822468 10.28946648 11.71039812 11.78125 19.52734375 C12.70723848 29.74357733 11.13098236 38.72856815 4.65625 46.90234375 C-1.59373452 53.47630155 -9.84887386 56.6138582 -18.78125 56.83984375 C-28.16942268 56.72549329 -35.77926743 53.92227887 -42.56640625 47.37109375 C-49.11287928 40.06628224 -50.54161071 31.66136146 -50.15625 22.02734375 C-49.28664971 13.62779552 -46.53617098 7.32951262 -40.28125 1.58984375 C-28.46334282 -7.85115353 -12.59474513 -8.35954034 0 0 Z M-33.46875 11.83984375 C-37.33394381 16.67639516 -38.67563005 21.19928015 -38.4609375 27.44921875 C-37.80702136 33.06024111 -36.07885114 37.10090221 -31.84375 40.90234375 C-26.20053688 45.22880714 -21.26657855 46.32568185 -14.21875 45.52734375 C-8.27399496 43.35522172 -4.5649825 39.84843426 -1.40625 34.40234375 C0.9303175 28.23863984 0.86591246 21.18833057 -1.78125 15.15234375 C-4.62583286 10.20480141 -8.87706034 7.30790697 -14.21875 5.52734375 C-22.27879974 4.80596236 -27.82124658 5.70361407 -33.46875 11.83984375 Z " fill="#C9692A" transform="translate(1106.21875,1397.47265625)"/>
<path d="M0 0 C2.98982827 3.90977543 2.78951724 7.35400017 2.625 12.125 C2.46386719 12.82882812 2.30273438 13.53265625 2.13671875 14.2578125 C-1.22102881 33.0714515 4.01528269 48.3603129 13.5625 64.375 C15.00751709 68.11504424 14.74000247 70.292179 13.625 74.125 C11.20603514 77.30421096 9.52580881 78.8116752 5.75 80.125 C1.67088055 80.125 -1.12402244 79.54783381 -4.375 77.125 C-17.26608232 63.05744998 -21.57865005 46.06285496 -21.75 27.5625 C-21.76401855 26.5219043 -21.77803711 25.48130859 -21.79248047 24.40917969 C-21.74420541 16.54901026 -21.61450114 6.01930356 -15.9375 -0.0625 C-10.84228932 -3.6664295 -5.14809748 -4.06428748 0 0 Z " fill="#492D1E" transform="translate(1055.375,540.875)"/>
<path d="M0 0 C3.375 1.0625 3.375 1.0625 4.56884766 2.63916016 C5.70159879 6.04427455 5.65330987 9.34992497 5.6484375 12.8984375 C5.66872827 14.45313218 5.68957909 16.00781962 5.7109375 17.5625 C5.73351053 20.00038773 5.75000118 22.43798919 5.75585938 24.87597656 C5.76541896 27.23814968 5.79923431 29.59905142 5.8359375 31.9609375 C5.83089203 32.68300385 5.82584656 33.40507019 5.82064819 34.14901733 C5.91901049 39.24660415 7.20260604 42.11530556 10.375 46.0625 C14.67428639 49.84066077 18.54592316 50.35839966 24.09375 50.27734375 C28.77368833 49.83659613 31.55781314 47.94594526 34.6875 44.5625 C37.66840878 40.14633885 37.52272166 36.13826478 37.55078125 31 C37.57396948 29.38279934 37.5980864 27.76561178 37.62304688 26.1484375 C37.65822993 23.60049536 37.68754967 21.05303892 37.70092773 18.50488281 C37.71637154 16.04432748 37.7565416 13.58518375 37.80078125 11.125 C37.79887283 10.36243896 37.79696442 9.59987793 37.79499817 8.81420898 C37.91681592 3.56328748 37.91681592 3.56328748 40.21557617 1.05078125 C43.29474403 -0.35842977 45.1835593 0.09119196 48.375 1.0625 C50.59263755 4.38895632 50.62725305 5.43655944 50.63378906 9.3125 C50.64009338 10.38371094 50.64639771 11.45492188 50.65289307 12.55859375 C50.6488446 13.71488281 50.64479614 14.87117188 50.640625 16.0625 C50.64349518 17.84333984 50.64349518 17.84333984 50.64642334 19.66015625 C50.64778518 22.17187715 50.64408886 24.68360509 50.63574219 27.1953125 C50.62504296 31.04703533 50.63563786 34.89829173 50.6484375 38.75 C50.64711591 41.18750103 50.64455351 43.62500177 50.640625 46.0625 C50.64467346 47.21878906 50.64872192 48.37507813 50.65289307 49.56640625 C50.64658875 50.63761719 50.64028442 51.70882813 50.63378906 52.8125 C50.63219788 53.75609375 50.63060669 54.6996875 50.62896729 55.671875 C50.375 58.0625 50.375 58.0625 48.375 61.0625 C46.5 61.42578125 46.5 61.42578125 44.375 61.375 C43.67375 61.37113281 42.9725 61.36726563 42.25 61.36328125 C40.375 61.0625 40.375 61.0625 38.375 59.0625 C38.375 58.0725 38.375 57.0825 38.375 56.0625 C37.1065625 56.990625 37.1065625 56.990625 35.8125 57.9375 C28.92056801 62.44683834 21.39703877 62.860611 13.375 62.0625 C5.6363185 60.32569364 0.78530029 56.58581324 -3.625 50.0625 C-8.32423751 41.29058999 -7.86267503 31.63927657 -7.92016602 21.91625977 C-7.9317685 20.54994418 -7.95234864 19.18367674 -7.98168945 17.81762695 C-8.02437715 15.82275215 -8.03793391 13.82732137 -8.05078125 11.83203125 C-8.06536377 10.65229736 -8.07994629 9.47256348 -8.0949707 8.25708008 C-7.31516538 2.95642934 -5.49192024 0.09468828 0 0 Z " fill="#C9692A" transform="translate(1139.625,1391.9375)"/>
<path d="M0 0 C3.30489995 2.42226603 5.73762515 4.55693831 6.5 8.75 C6 11 6 11 4 13 C-1.75059908 13.66353066 -4.44242134 12.418184 -9 9 C-12.1765511 7.94114963 -14.59988011 7.79950734 -17.9375 7.75 C-18.97777344 7.72421875 -20.01804687 7.6984375 -21.08984375 7.671875 C-24.31721419 8.03576643 -25.63713641 8.83641406 -28 11 C-28.2113453 13.3912295 -28.2113453 13.3912295 -27 16 C-22.50093367 19.04913026 -17.22846849 20.23916983 -12 21.4375 C-5.02446464 23.09241017 0.51353357 25.45288805 5.5625 30.625 C7.6285007 35.47561035 7.76636085 39.80577645 7 45 C4.11712499 50.87252318 -0.01081427 54.4014216 -6.0625 56.75 C-15.22971013 59.54134685 -26.20349489 59.03036663 -34.7421875 54.56640625 C-41.31704152 50.68295848 -41.31704152 50.68295848 -43 49 C-43.375 45.625 -43.375 45.625 -43 42 C-40.875 39.9375 -40.875 39.9375 -38 39 C-33.26261107 39.90715958 -29.94803152 42.33937007 -26 45 C-20.54512181 46.77653653 -14.30083812 46.7362682 -8.875 45 C-7.946875 44.505 -7.946875 44.505 -7 44 C-6.67 41.69 -6.34 39.38 -6 37 C-8.84890941 34.64198588 -11.19968327 33.45052291 -14.7734375 32.53515625 C-15.6809375 32.29216797 -16.5884375 32.04917969 -17.5234375 31.79882812 C-19.41621023 31.31007791 -21.30943707 30.82308277 -23.203125 30.33789062 C-29.27427748 28.70831074 -34.37403286 27.20189727 -38.49609375 22.17578125 C-41.16576856 16.89181908 -41.62611517 12.72860182 -40 7 C-37.33544867 1.35115118 -33.63796204 -0.8527293 -28 -3 C-18.89979765 -5.9043199 -8.17238026 -4.86451206 0 0 Z " fill="#C9692A" transform="translate(1248,1396)"/>
<path d="M0 0 C4.55070822 3.62951222 4.55070822 3.62951222 5.76953125 6.5546875 C5.82238281 7.20953125 5.87523437 7.864375 5.9296875 8.5390625 C3.4921875 11.2890625 3.4921875 11.2890625 0.9296875 13.5390625 C-3.21015789 11.86720186 -6.54749959 10.30698693 -10.0703125 7.5390625 C-15.09585042 5.86388319 -20.32509627 5.53825113 -25.36328125 7.375 C-29.71332784 9.8071086 -32.49837877 12.62779074 -34.4453125 17.234375 C-36.06998164 23.22534246 -36.00454189 29.21493822 -33.4453125 34.9140625 C-30.75277113 39.58049541 -27.24430851 42.81439716 -22.0703125 44.5390625 C-15.74759031 45.22411766 -11.39843723 44.56305225 -5.88671875 41.4453125 C-3.13079579 40.07031438 -1.06856597 39.9812479 1.9296875 40.5390625 C3.9296875 42.2265625 3.9296875 42.2265625 4.9296875 44.5390625 C4.35744091 48.25866535 2.61858533 50.0189434 -0.2578125 52.2265625 C-7.33185361 56.83628601 -14.82629969 57.35315877 -23.0703125 56.5390625 C-30.71073814 54.84231904 -37.02122459 51.59567816 -42.0703125 45.5390625 C-47.73992209 36.36306095 -49.77346823 27.28534308 -47.421875 16.58984375 C-44.5392673 7.7572381 -39.31360072 1.00417695 -31.0703125 -3.4609375 C-20.53376115 -7.7615707 -9.21175514 -6.50037061 0 0 Z " fill="#C9692A" transform="translate(1005.0703125,1397.4609375)"/>
<path d="M0 0 C1.051875 0.01160156 1.051875 0.01160156 2.125 0.0234375 C2.82625 0.01570313 3.5275 0.00796875 4.25 0 C6.125 0.3984375 6.125 0.3984375 8.125 3.3984375 C8.3765564 6.27586365 8.3765564 6.27586365 8.38037109 9.82592773 C8.38399155 10.47342987 8.387612 11.12093201 8.39134216 11.78805542 C8.3982298 13.19252044 8.40074278 14.59701219 8.39939499 16.00149345 C8.39842964 18.22514319 8.41137204 20.44830967 8.42837524 22.67189026 C8.47464804 28.99321763 8.49925704 35.31449543 8.50585938 41.63598633 C8.51087345 45.5040661 8.53511641 49.37164088 8.57118607 53.23954964 C8.58098594 54.71269766 8.58331493 56.18591514 8.57801437 57.65908623 C8.57094496 59.72045761 8.58821937 61.78032364 8.61083984 63.84155273 C8.61368988 65.01386948 8.61653992 66.18618622 8.61947632 67.39402771 C9.23386988 71.045469 10.20412837 72.18697254 13.125 74.3984375 C15.43488315 75.14229818 17.76815944 75.82034453 20.125 76.3984375 C21.125 77.3984375 21.125 77.3984375 21.375 80.2734375 C21.125 83.3984375 21.125 83.3984375 19.9375 85.0625 C16.22903259 87.79589624 11.48777878 87.02692172 7.125 86.3984375 C2.7229483 84.73257881 0.06370409 81.86003936 -2.03759766 77.69873047 C-4.89636115 70.92644948 -4.41071975 63.7424485 -4.3359375 56.53125 C-4.33354902 55.00430457 -4.33264861 53.47735615 -4.3331604 51.95040894 C-4.33004908 48.76818142 -4.31360432 45.58640981 -4.28662109 42.40429688 C-4.25246923 38.32539852 -4.24499836 34.24699531 -4.24651146 30.16797066 C-4.24596816 27.02299271 -4.23501029 23.87812298 -4.22050858 20.733181 C-4.21414866 19.22848197 -4.21020357 17.72377073 -4.20872116 16.21905899 C-4.20438927 14.12255075 -4.18689673 12.02657063 -4.16552734 9.93017578 C-4.15790375 8.73820587 -4.15028015 7.54623596 -4.14242554 6.31814575 C-3.84975984 3.12286954 -3.47750023 0.7389688 0 0 Z " fill="#C9692A" transform="translate(895.875,1366.6015625)"/>
<path d="M0 0 C6.83966831 5.26128331 12.87711381 15.5122131 14.3515625 24.03125 C14.62286342 27.85802081 14.14328716 29.79592435 11.9375 32.9375 C8.33990877 35.46346831 6.4015747 36.07460296 2 36 C-5.62348324 33.9333931 -11.34757109 27.59639146 -15.19921875 20.921875 C-16.52428994 17.74170414 -16.39843951 15.41519576 -16 12 C-13.23208373 5.64448411 -7.79024529 -1.79774891 0 0 Z " fill="#C9692A" transform="translate(1207,1169)"/>
<path d="M0 0 C2.19833789 3.29750683 2.25551961 4.30907276 2.2746582 8.14233398 C2.28419022 9.19029648 2.29372223 10.23825897 2.30354309 11.31797791 C2.30263168 12.44925613 2.30172028 13.58053436 2.30078125 14.74609375 C2.30506638 15.90875259 2.3093515 17.07141144 2.31376648 18.26930237 C2.31951316 20.72973987 2.32000757 23.19019437 2.31567383 25.65063477 C2.31251544 29.41907693 2.3359645 33.18673316 2.36132812 36.95507812 C2.36360119 39.34374901 2.36430458 41.73242201 2.36328125 44.12109375 C2.372491 45.25034775 2.38170074 46.37960175 2.39118958 47.54307556 C2.38496078 48.59419022 2.37873199 49.64530487 2.37231445 50.72827148 C2.37294388 51.65187973 2.3735733 52.57548798 2.3742218 53.52708435 C1.92334983 56.50651622 1.12656203 57.88023557 -1 60 C-4.5625 60.375 -4.5625 60.375 -8 60 C-10.60105807 57.39894193 -10.26238362 56.30272016 -10.29052734 52.67993164 C-10.30328705 51.56860367 -10.31604675 50.4572757 -10.32919312 49.31227112 C-10.33141876 48.10707321 -10.33364441 46.90187531 -10.3359375 45.66015625 C-10.3459227 43.81060585 -10.3459227 43.81060585 -10.35610962 41.9236908 C-10.36625051 39.311854 -10.3709262 36.69999123 -10.37060547 34.08813477 C-10.37044258 31.40589533 -10.38437343 28.72433626 -10.41162109 26.04223633 C-10.4481464 22.18549558 -10.45807311 18.32955234 -10.4609375 14.47265625 C-10.47530853 13.26948257 -10.48967957 12.0663089 -10.50448608 10.82667542 C-10.49833282 9.71219528 -10.49217957 8.59771515 -10.48583984 7.44946289 C-10.4901149 5.97625328 -10.4901149 5.97625328 -10.49447632 4.47328186 C-10 2 -10 2 -8.16494751 0.15159607 C-5.08877485 -1.48470612 -3.2722703 -0.99590835 0 0 Z " fill="#C9692A" transform="translate(1038,1393)"/>
<path d="M0 0 C2.6080523 2.6080523 2.25291786 3.7038194 2.25878906 7.3359375 C2.26509338 8.45049316 2.27139771 9.56504883 2.27789307 10.71337891 C2.2738446 11.92171387 2.26979614 13.13004883 2.265625 14.375 C2.26753845 15.61040527 2.2694519 16.84581055 2.27142334 18.11865234 C2.2731361 21.40591407 2.26506699 24.69298787 2.25390625 27.98022461 C2.25000397 29.9979453 2.25389171 32.01549201 2.26074219 34.03320312 C2.27306004 37.89721828 2.27160978 41.76097428 2.265625 45.625 C2.26967346 46.83333496 2.27372192 48.04166992 2.27789307 49.28662109 C2.27158875 50.40117676 2.26528442 51.51573242 2.25878906 52.6640625 C2.25640228 54.14060303 2.25640228 54.14060303 2.25396729 55.64697266 C2 58 2 58 0 60 C-3.4375 60.375 -3.4375 60.375 -7 60 C-9.12656203 57.88023557 -9.92334983 56.50651622 -10.3742218 53.52708435 C-10.37359238 52.6034761 -10.37296295 51.67986786 -10.37231445 50.72827148 C-10.37854324 49.67715683 -10.38477203 48.62604218 -10.39118958 47.54307556 C-10.38197983 46.41382156 -10.37277008 45.28456757 -10.36328125 44.12109375 C-10.36402901 42.37567039 -10.36402901 42.37567039 -10.36479187 40.59498596 C-10.36245218 38.13630464 -10.35272994 35.67762089 -10.33618164 33.21899414 C-10.31256897 29.44851354 -10.31562433 25.67873897 -10.32226562 21.90820312 C-10.31668959 19.5208291 -10.30958018 17.13345807 -10.30078125 14.74609375 C-10.30169266 13.61481552 -10.30260406 12.48353729 -10.30354309 11.31797791 C-10.29401108 10.27001541 -10.28447906 9.22205292 -10.2746582 8.14233398 C-10.27005081 7.21952133 -10.26544342 6.29670868 -10.26069641 5.34593201 C-10 3 -10 3 -8 0 C-4.67679974 -1.10773342 -3.30835256 -0.93312508 0 0 Z " fill="#C9692A" transform="translate(938,1393)"/>
<path d="M0 0 C2.375 1.5 2.375 1.5 4 4 C4.63268453 7.53308104 4.74586577 10.78306111 2.8125 13.9375 C0.40031782 15.35153783 -1.18407585 15.86902678 -4 16 C-9.63855422 13.72289157 -9.63855422 13.72289157 -11 11 C-11.375 7.625 -11.375 7.625 -11 4 C-7.69532025 0.20933794 -4.96286146 -0.84474238 0 0 Z " fill="#C96829" transform="translate(1037,1368)"/>
<path d="M0 0 C2.875 1.5625 2.875 1.5625 5 4 C5.5625 7.5 5.5625 7.5 5 11 C3.20171456 13.44053024 1.81043868 14.63399544 -0.9375 15.875 C-3.73670961 16.04464907 -5.51181352 15.24409324 -8 14 C-10 12 -10 12 -10.375 8.125 C-10.28707416 5.10254931 -10.07715786 4.1187044 -8.375 1.5 C-5.25991849 -0.4674199 -3.62829011 -0.5923739 0 0 Z " fill="#CA6829" transform="translate(937,1368)"/>
</svg>
