<!-- Generated by IcoMoon.io -->
<svg version="1.1" xmlns="http://www.w3.org/2000/svg" width="32" height="32" viewBox="0 0 32 32">
<path fill="#492d1e" d="M15.535 10.968c0.019-0 0.037-0 0.056-0 0.051-0 0.102-0 0.153 0 0.055 0 0.111-0 0.166-0 0.108-0 0.216-0 0.325-0 0.088 0 0.176 0 0.264 0 0.013 0 0.025-0 0.038-0 0.026-0 0.051-0 0.076-0 0.239-0 0.477 0 0.716 0 0.205 0 0.409 0 0.614-0 0.238-0 0.476-0 0.714-0 0.025 0 0.051 0 0.076 0 0.012 0 0.025 0 0.038 0 0.088 0 0.176-0 0.263-0 0.107-0 0.214-0 0.321 0 0.055 0 0.109 0 0.164 0 0.059-0 0.119 0 0.178 0 0.017-0 0.034-0 0.052-0 0.162 0.002 0.311 0.052 0.427 0.169 0.107 0.146 0.133 0.268 0.13 0.446-0 0.017-0 0.034-0 0.052-0 0.042-0.001 0.084-0.002 0.126 0.015-0.005 0.030-0.009 0.045-0.014 0.315-0.092 0.618-0.071 0.909 0.089 0.255 0.149 0.417 0.385 0.501 0.665 0.093 0.396 0.071 0.879-0.143 1.229-0.034 0.051-0.071 0.098-0.112 0.144-0.012 0.014-0.012 0.014-0.025 0.029-0.186 0.204-0.46 0.299-0.727 0.323-0.013 0.001-0.025 0.002-0.038 0.004-0.207 0.009-0.405-0.072-0.586-0.164-0.006 0.066-0.012 0.132-0.018 0.198-0.002 0.024-0.004 0.048-0.006 0.073-0.013 0.145-0.025 0.291-0.035 0.436-0.002 0.027-0.004 0.054-0.006 0.081-0.003 0.039-0.006 0.078-0.008 0.117-0.034 0.531-0.034 0.531-0.199 0.696 0.009 0 0.019 0 0.028 0 0.227 0.001 0.454 0.002 0.681 0.003 0.11 0.001 0.22 0.001 0.329 0.001 0.106 0 0.212 0.001 0.318 0.002 0.040 0 0.081 0 0.121 0 0.057 0 0.113 0 0.17 0.001 0.017-0 0.034-0 0.051-0 0.114 0.002 0.114 0.002 0.175 0.039 0.035 0.039 0.051 0.063 0.062 0.114-0.008 0.087-0.031 0.16-0.064 0.24-0.005 0.012-0.010 0.024-0.014 0.036-0.010 0.025-0.020 0.050-0.030 0.075-0.015 0.038-0.030 0.076-0.046 0.114-0.1 0.25-0.2 0.465-0.454 0.59-0.113 0.043-0.216 0.055-0.337 0.054-0.017 0-0.034 0-0.052 0-0.057 0-0.115 0-0.172-0-0.042 0-0.083 0-0.125 0-0.090 0-0.181 0-0.271 0-0.134-0-0.269-0-0.403 0-0.24 0-0.48 0-0.72 0-0.21-0-0.42-0-0.63 0-0.028 0-0.056 0-0.085 0-0.042 0-0.085 0-0.127 0-0.395 0-0.79 0-1.185 0-0.022 0-0.022 0-0.045 0-0.121-0-0.242-0-0.363-0-0.471-0-0.943-0-1.414 0-0.53 0-1.059 0.001-1.589 0-0.056 0-0.113-0-0.169-0-0.014 0-0.028 0-0.042 0-0.21-0-0.42 0-0.63 0-0.239 0-0.477 0-0.716-0-0.134-0-0.267-0-0.401 0-0.1 0-0.2 0-0.299-0-0.040-0-0.081 0-0.121 0-0.055 0-0.11 0-0.165-0-0.016 0-0.031 0-0.047 0-0.172-0.002-0.316-0.063-0.451-0.168-0.010-0.007-0.019-0.015-0.029-0.022-0.157-0.136-0.225-0.375-0.301-0.562-0.009-0.021-0.018-0.043-0.027-0.064-0.091-0.219-0.091-0.219-0.075-0.328 0.025-0.050 0.062-0.087 0.112-0.112 0.034-0.002 0.067-0.004 0.101-0.005 0.020-0.001 0.040-0.001 0.061-0.002s0.042-0.001 0.064-0.002c0.021-0.001 0.043-0.001 0.064-0.002 0.053-0.002 0.105-0.003 0.158-0.005 0.008-0.021 0.008-0.021 0.016-0.043 0.007-0.019 0.014-0.037 0.021-0.056 0.010-0.028 0.010-0.028 0.021-0.056 0.102-0.244 0.341-0.461 0.522-0.65 0.010-0.011 0.021-0.022 0.032-0.034 0.009-0.010 0.018-0.019 0.028-0.029 0.021-0.027 0.021-0.027 0.014-0.061-0.012-0.033-0.012-0.033-0.036-0.071-0.054-0.090-0.050-0.194-0.040-0.296 0.015-0.048 0.035-0.087 0.064-0.128 0.009-0.012 0.017-0.025 0.026-0.037 0.051-0.057 0.11-0.099 0.172-0.144 0.013-0.009 0.026-0.018 0.039-0.028 0.109-0.077 0.221-0.145 0.339-0.207 0.010-0.005 0.020-0.011 0.030-0.016 0.235-0.126 0.562-0.288 0.834-0.288 0.001-0.016 0.001-0.032 0.002-0.048 0.012-0.081 0.054-0.134 0.11-0.192 0.106-0.077 0.22-0.123 0.344-0.162 0.017-0.005 0.034-0.011 0.051-0.016 0.144-0.046 0.288-0.084 0.437-0.11 0.011-0.002 0.021-0.004 0.032-0.006 0.371-0.062 0.777-0.046 1.142 0.047 0.017 0.004 0.034 0.009 0.052 0.013 0.013 0.003 0.026 0.007 0.039 0.010-0.001-0.018-0.003-0.037-0.004-0.056-0.014-0.174-0.027-0.348-0.040-0.523-0.007-0.090-0.014-0.179-0.021-0.269-0.007-0.086-0.013-0.173-0.020-0.26-0.002-0.033-0.005-0.066-0.008-0.099-0.039-0.487-0.039-0.487 0.093-0.683 0.135-0.157 0.293-0.202 0.495-0.2zM15.331 11.379c-0.071 0.092-0.051 0.209-0.044 0.319 0.001 0.016 0.002 0.032 0.003 0.048 0.003 0.052 0.007 0.105 0.010 0.157 0.001 0.018 0.002 0.036 0.004 0.054 0.007 0.095 0.013 0.19 0.020 0.285 0.006 0.079 0.011 0.157 0.016 0.236 0.006 0.095 0.012 0.19 0.020 0.285 0.003 0.036 0.005 0.072 0.007 0.108 0.002 0.189 0.002 0.189 0.078 0.353 0.041 0.026 0.041 0.026 0.085 0.039 0.070 0.027 0.103 0.094 0.135 0.159 0.003 0.016 0.005 0.032 0.008 0.049 0.019 0.049 0.019 0.049 0.058 0.063 0.047 0.015 0.093 0.027 0.141 0.038 0.035 0.009 0.070 0.019 0.105 0.028 0.026 0.007 0.026 0.007 0.053 0.015 0.373 0.108 0.871 0.334 1.107 0.655 0.047 0.086 0.063 0.175 0.048 0.272-0.023 0.075-0.052 0.142-0.096 0.208 0.018 0.019 0.018 0.019 0.037 0.039 0.092 0.098 0.181 0.198 0.265 0.303 0.034 0.042 0.070 0.081 0.107 0.12 0.127 0.14 0.202 0.289 0.263 0.466 0.019 0 0.039 0 0.059 0 0.072 0 0.145 0.001 0.217 0.002 0.031 0 0.063 0.001 0.094 0.001 0.045 0 0.090 0.001 0.135 0.002 0.014-0 0.028-0 0.042-0 0.070 0.002 0.1 0.005 0.158 0.049 0.039 0.054 0.046 0.089 0.047 0.155-0.009 0.044-0.009 0.044-0.032 0.080-0.076 0.048-0.142 0.055-0.229 0.054-0.013 0-0.026 0-0.040 0-0.044 0-0.089 0-0.133-0-0.032 0-0.064 0-0.096 0-0.088 0-0.177 0-0.265 0-0.095 0-0.19 0-0.285 0-0.165 0-0.33 0.001-0.495 0.001-0.173 0-0.346 0-0.519 0.001-0.011 0-0.021 0-0.033 0-0.055 0-0.109 0-0.164 0-0.387 0.001-0.774 0.001-1.16 0.002-0.376 0-0.751 0.001-1.127 0.001-0.012 0-0.023 0-0.035 0-0.116 0-0.233 0-0.349 0.001-0.237 0-0.474 0.001-0.711 0.001-0.011 0-0.022 0-0.033 0-0.727 0.001-1.455 0.002-2.182 0.003 0.022 0.059 0.044 0.118 0.066 0.177 0.009 0.025 0.009 0.025 0.018 0.050 0.045 0.118 0.098 0.236 0.22 0.291 0.010 0.005 0.020 0.009 0.030 0.014 0.096 0.033 0.194 0.030 0.294 0.030 0.025 0 0.025 0 0.050 0 0.056 0 0.112 0 0.168 0 0.040 0 0.081 0 0.121 0 0.088 0 0.176 0 0.264 0 0.131-0 0.261 0 0.392 0 0.247 0 0.494 0 0.741 0 0.191 0 0.382 0 0.572 0 0.055 0 0.11 0 0.165 0 0.014 0 0.027 0 0.041 0 0.384 0 0.768 0 1.152 0 0.022 0 0.022 0 0.044 0 0.073 0 0.147 0 0.22 0 0.015 0 0.029 0 0.044 0 0.029 0 0.059 0 0.088 0 0.459 0 0.917 0 1.376 0 0.515 0 1.030 0 1.545 0 0.055 0 0.11 0 0.165 0 0.014 0 0.027 0 0.041 0 0.218 0 0.435 0 0.653 0 0.219 0 0.437 0 0.656 0 0.13-0 0.26-0 0.39 0 0.097 0 0.194 0 0.291-0 0.039-0 0.079 0 0.118 0 0.053 0 0.107 0 0.16-0 0.015 0 0.031 0 0.046 0 0.148-0.001 0.277-0.015 0.387-0.123 0.070-0.077 0.107-0.158 0.143-0.255 0.009-0.022 0.009-0.022 0.017-0.044 0.030-0.070 0.030-0.070 0.041-0.143-0.018-0-0.018-0-0.036-0-0.289-0.001-0.578-0.002-0.867-0.003-0.14-0.001-0.279-0.001-0.419-0.001-0.122-0-0.244-0.001-0.365-0.001-0.064-0-0.129-0.001-0.193-0.001-0.061 0-0.121-0-0.182-0.001-0.022-0-0.044-0-0.067-0-0.212 0.001-0.212 0.001-0.287-0.073-0.023-0.069-0.021-0.131-0.009-0.202 0.025-0.038 0.025-0.038 0.056-0.048 0.041-0.007 0.081-0.011 0.123-0.015 0.167-0.017 0.317-0.062 0.439-0.183 0.075-0.103 0.128-0.207 0.14-0.334 0.002-0.019 0.004-0.038 0.005-0.058 0.002-0.021 0.004-0.042 0.005-0.064 0.002-0.023 0.004-0.045 0.006-0.068 0.027-0.301 0.050-0.603 0.073-0.905 0.005-0.068 0.011-0.136 0.016-0.204 0.012-0.161 0.025-0.321 0.037-0.482 0.013-0.165 0.025-0.33 0.038-0.495 0.011-0.143 0.022-0.285 0.033-0.428 0.006-0.085 0.013-0.17 0.020-0.254 0.006-0.079 0.012-0.159 0.018-0.238 0.002-0.029 0.004-0.058 0.007-0.087 0.034-0.249 0.034-0.249-0.007-0.488-0.068-0.070-0.137-0.090-0.232-0.094-0.032-0-0.064-0-0.096 0-0.026-0-0.026-0-0.053-0-0.059-0-0.118 0-0.177 0-0.042-0-0.085-0-0.127-0-0.103-0-0.206-0-0.308 0-0.12 0-0.24 0-0.359 0-0.214-0-0.427 0-0.641 0-0.207 0-0.415 0-0.622 0-0.226-0-0.452-0-0.678 0-0.024 0-0.048 0-0.072 0-0.012 0-0.024 0-0.036 0-0.083 0-0.167 0-0.25 0-0.102-0-0.203 0-0.305 0-0.052 0-0.104 0-0.156 0-0.056-0-0.113 0-0.169 0-0.016-0-0.033-0-0.050-0-0.103 0.001-0.182 0.006-0.266 0.071zM20.416 12.096c-0.014 0.005-0.027 0.011-0.041 0.016-0.064 0.031-0.11 0.055-0.135 0.124-0.008 0.058-0.012 0.116-0.014 0.174-0.001 0.023-0.003 0.045-0.004 0.067-0.003 0.051-0.006 0.102-0.009 0.153-0.006 0.102-0.014 0.205-0.022 0.307-0.002 0.028-0.002 0.028-0.005 0.057-0.003 0.038-0.006 0.076-0.009 0.114-0.007 0.091-0.014 0.183-0.021 0.274-0.001 0.016-0.003 0.032-0.004 0.049-0.001 0.015-0.002 0.030-0.003 0.045-0.001 0.013-0.002 0.026-0.003 0.040-0.002 0.033-0.002 0.066-0.002 0.1 0.011 0 0.021 0 0.032 0 0.005 0.016 0.011 0.032 0.016 0.048 0.135 0.126 0.315 0.204 0.5 0.21 0.224-0.011 0.402-0.088 0.561-0.246 0.173-0.199 0.19-0.421 0.19-0.672 0-0.017 0-0.034 0.001-0.051 0-0.163-0.012-0.316-0.089-0.462-0.009-0.018-0.018-0.036-0.028-0.054-0.102-0.169-0.258-0.271-0.443-0.333-0.153-0.028-0.325-0.019-0.468 0.041zM13.184 13.536c-0.024 0.072-0.006 0.141 0.005 0.214 0.014 0.1 0.021 0.195-0.038 0.282-0.065 0.044-0.097 0.041-0.175 0.032-0.055-0.019-0.063-0.030-0.096-0.080-0.011-0.032-0.022-0.064-0.032-0.096-0.101 0.009-0.191 0.032-0.287 0.065-0.022 0.007-0.022 0.007-0.044 0.015-0.309 0.107-0.59 0.264-0.836 0.48 0.010 0.051 0.027 0.086 0.056 0.129 0.008 0.013 0.017 0.025 0.025 0.038s0.018 0.027 0.028 0.041c0.009 0.014 0.019 0.029 0.029 0.043 0.031 0.047 0.062 0.093 0.093 0.14 0.021 0.032 0.042 0.064 0.063 0.096 0.121 0.183 0.243 0.366 0.367 0.547 0.006 0.009 0.013 0.019 0.019 0.028 0.055 0.088 0.055 0.088 0.121 0.168 0.044 0.001 0.087 0.002 0.131 0.002 0.020-0 0.020-0 0.040-0 0.042-0 0.084-0 0.126-0.001 0.028-0 0.057-0 0.085-0 0.070-0 0.14-0 0.21-0.001-0.001-0.012-0.003-0.024-0.004-0.036-0.013-0.111-0.026-0.223-0.040-0.334-0.007-0.057-0.014-0.114-0.020-0.172-0.007-0.055-0.013-0.111-0.020-0.166-0.004-0.031-0.007-0.062-0.011-0.094-0.032-0.27-0.032-0.27 0.031-0.351 0.048-0.032 0.063-0.037 0.118-0.039 0.018-0.001 0.018-0.001 0.036-0.002 0.057 0.014 0.080 0.045 0.118 0.089 0.014 0.048 0.014 0.048 0.021 0.102 0.002 0.020 0.005 0.040 0.008 0.061 0.002 0.022 0.005 0.044 0.007 0.066s0.005 0.045 0.008 0.068c0.007 0.059 0.014 0.119 0.021 0.179s0.014 0.121 0.021 0.181c0.008 0.068 0.016 0.136 0.024 0.204 0.002 0.020 0.005 0.040 0.007 0.061 0.002 0.018 0.004 0.036 0.006 0.054 0.006 0.043 0.014 0.085 0.022 0.128 0.554 0 1.109 0 1.68 0 0.045-0.37 0.045-0.37 0.089-0.739 0.016-0.132 0.032-0.264 0.048-0.397 0.013-0.105 0.025-0.209 0.038-0.314 0.007-0.055 0.013-0.111 0.020-0.166 0.008-0.062 0.015-0.124 0.022-0.186 0.003-0.027 0.003-0.027 0.007-0.055 0.011-0.091 0.018-0.179 0.015-0.271-0.179-0.101-0.374-0.153-0.574-0.196-0.012-0.003-0.024-0.005-0.037-0.008-0.491-0.1-1.1-0.049-1.549 0.188zM15.664 13.872c-0.027 0.226-0.054 0.453-0.081 0.679-0.013 0.105-0.025 0.21-0.038 0.315-0.012 0.101-0.024 0.203-0.036 0.304-0.005 0.039-0.009 0.077-0.014 0.116-0.007 0.054-0.013 0.108-0.019 0.162-0.002 0.016-0.004 0.032-0.006 0.049-0.002 0.015-0.004 0.030-0.005 0.045-0.002 0.013-0.003 0.026-0.005 0.039-0.003 0.033-0.003 0.066-0.003 0.099 0.188 0.044 0.411 0.085 0.592 0 0.188-0.143 0.3-0.394 0.412-0.597 0.048-0.086 0.101-0.168 0.157-0.249 0.012-0.018 0.012-0.018 0.025-0.036 0.023-0.034 0.047-0.068 0.070-0.102 0.028-0.041 0.056-0.082 0.083-0.123 0.011-0.017 0.023-0.033 0.034-0.051 0.024-0.041 0.024-0.041 0.011-0.078-0.042-0.053-0.098-0.087-0.154-0.125-0.013-0.009-0.027-0.018-0.041-0.027-0.281-0.186-0.581-0.332-0.911-0.405-0.013-0.003-0.026-0.006-0.039-0.009-0.010-0.002-0.020-0.004-0.030-0.007zM11.584 15.101c-0.061 0.062-0.115 0.129-0.17 0.197-0.039 0.047-0.080 0.092-0.122 0.137-0.107 0.108-0.107 0.108-0.156 0.245 0.301 0 0.602 0 0.912 0-0.050-0.091-0.1-0.177-0.157-0.263-0.007-0.010-0.014-0.021-0.021-0.032-0.014-0.022-0.029-0.043-0.044-0.065-0.022-0.033-0.045-0.067-0.067-0.1-0.014-0.021-0.028-0.042-0.043-0.064-0.007-0.010-0.013-0.020-0.020-0.030-0.016-0.023-0.032-0.047-0.049-0.069-0.029 0-0.044 0.026-0.064 0.045zM16.88 15.056c-0.024 0.033-0.046 0.067-0.069 0.101-0.007 0.010-0.014 0.021-0.021 0.031-0.022 0.033-0.044 0.067-0.066 0.1s-0.044 0.066-0.066 0.099c-0.014 0.021-0.027 0.041-0.041 0.062-0.033 0.050-0.067 0.099-0.102 0.147-0.038 0.045-0.038 0.045-0.035 0.083 0.301 0 0.602 0 0.912 0-0.056-0.114-0.056-0.114-0.131-0.205-0.052-0.056-0.101-0.112-0.149-0.171-0.069-0.085-0.14-0.169-0.216-0.248-0.005 0-0.011 0-0.016 0z"></path>
<path fill="#c9692a" d="M18.408 18.885c0.089 0.086 0.123 0.163 0.13 0.287-0.006 0.171-0.094 0.3-0.209 0.422-0.073 0.068-0.152 0.125-0.233 0.182 0.015 0.006 0.029 0.011 0.044 0.017 0.138 0.056 0.265 0.112 0.357 0.235 0.031 0.107 0.031 0.206-0.015 0.309-0.168 0.296-0.526 0.452-0.838 0.542-0.165 0.045-0.382 0.098-0.545 0.026-0.107-0.065-0.256-0.179-0.294-0.302-0.010-0.098-0.010-0.098 0.018-0.148 0.008-0.008 0.017-0.015 0.025-0.023 0.093 0.007 0.165 0.028 0.25 0.067 0.042 0.015 0.074 0.016 0.118 0.013-0.013-0.010-0.013-0.010-0.026-0.021-0.129-0.107-0.129-0.107-0.15-0.187 0.013-0.15 0.051-0.296 0.087-0.442 0.12-0.394 0.12-0.394 0.085-0.779-0.024-0.032-0.049-0.061-0.076-0.091-0.025-0.046-0.033-0.069-0.030-0.121 0.025-0.071 0.064-0.096 0.131-0.129 0.337-0.112 0.887-0.086 1.171 0.143zM17.568 19.152c0 0.052 0.006 0.061 0.033 0.103 0.046 0.088 0.029 0.17 0.015 0.265-0.002 0.012-0.003 0.025-0.005 0.037-0.003 0.025-0.007 0.050-0.011 0.075 0.292-0.135 0.292-0.135 0.496-0.368 0.008-0.057 0.008-0.057 0-0.112-0.044-0.043-0.077-0.055-0.138-0.054-0.131 0.003-0.261 0.030-0.39 0.054zM17.52 19.92c-0.048 0.19-0.095 0.38-0.144 0.576 0.105-0.013 0.184-0.030 0.281-0.065 0.014-0.005 0.028-0.010 0.042-0.015 0.090-0.033 0.177-0.070 0.262-0.115 0.010-0.005 0.020-0.010 0.030-0.016 0.053-0.029 0.094-0.055 0.121-0.109 0.002-0.042 0.002-0.042-0.016-0.080-0.103-0.071-0.251-0.078-0.372-0.093-0.019-0.002-0.019-0.002-0.038-0.005-0.011-0.001-0.022-0.003-0.034-0.004-0.036-0.011-0.036-0.011-0.132-0.075z"></path>
<path fill="#c9692a" d="M22.033 19.417c0.14 0.113 0.244 0.262 0.27 0.441 0.006 0.092-0.022 0.155-0.075 0.23-0.115 0.129-0.3 0.194-0.468 0.216-0.042 0.001-0.083 0.002-0.125 0.002-0.011-0-0.023-0-0.034-0-0.209-0.002-0.209-0.002-0.273-0.034-0.015 0.1-0.019 0.176 0.016 0.272 0.18 0.052 0.391 0.005 0.567-0.043 0.075-0.020 0.126-0.026 0.201-0.005 0.032 0.032 0.032 0.032 0.038 0.084-0.007 0.074-0.021 0.101-0.070 0.156-0.216 0.16-0.459 0.196-0.72 0.176-0.127-0.024-0.215-0.084-0.304-0.176-0.018-0.018-0.018-0.018-0.036-0.037-0.11-0.169-0.117-0.353-0.081-0.549 0.053-0.188 0.152-0.354 0.277-0.503 0.008-0.011 0.016-0.021 0.025-0.032 0.193-0.241 0.514-0.391 0.792-0.199zM21.516 19.901c-0.025 0.032-0.043 0.062-0.060 0.099 0.237 0.011 0.237 0.011 0.448-0.080 0.011-0.021 0.022-0.042 0.032-0.064-0.015-0.018-0.031-0.037-0.046-0.055-0.009-0.010-0.017-0.020-0.026-0.031-0.033-0.036-0.051-0.041-0.1-0.047-0.114 0.011-0.176 0.096-0.248 0.177z"></path>
<path fill="#c9692a" d="M8.874 18.615c0.099 0.016 0.18 0.080 0.245 0.154 0.076 0.109 0.076 0.21 0.056 0.339-0.004 0.024-0.009 0.048-0.014 0.072-0.004 0.020-0.004 0.020-0.008 0.041-0.054 0.249-0.139 0.491-0.22 0.733-0.004 0.011-0.007 0.021-0.011 0.032-0.017 0.051-0.035 0.103-0.053 0.154-0.040 0.118-0.068 0.232-0.084 0.356 0.203-0.014 0.399-0.041 0.598-0.084 0.263-0.056 0.263-0.056 0.316-0.022 0.025 0.075 0.016 0.145-0.015 0.217-0.105 0.169-0.331 0.223-0.512 0.269-0.228 0.049-0.467 0.075-0.677-0.038-0.071-0.057-0.129-0.126-0.158-0.213-0.013-0.138 0.016-0.262 0.052-0.395 0.006-0.021 0.011-0.043 0.017-0.064 0.052-0.195 0.111-0.387 0.17-0.58 0.131-0.428 0.131-0.428 0.201-0.869 0.012-0.065 0.034-0.086 0.098-0.1z"></path>
<path fill="#c9692a" d="M20.202 18.835c0.101 0.036 0.185 0.11 0.257 0.188 0.040 0.093 0.025 0.18 0.005 0.278-0.003 0.014-0.006 0.028-0.009 0.043-0.002 0.011-0.004 0.021-0.007 0.032 0.010-0 0.019-0 0.029-0.001 0.044-0.001 0.088-0.002 0.133-0.002 0.015-0 0.030-0.001 0.046-0.001 0.087-0.001 0.15 0.002 0.224 0.052 0.019 0.038 0.019 0.038 0.016 0.080-0.071 0.093-0.164 0.124-0.275 0.146-0.015 0.003-0.029 0.006-0.044 0.009-0.030 0.006-0.061 0.011-0.091 0.016-0.015 0.003-0.029 0.006-0.044 0.009-0.020 0.004-0.020 0.004-0.040 0.007-0.055 0.034-0.065 0.090-0.082 0.149-0.008 0.023-0.015 0.046-0.023 0.069-0.008 0.024-0.015 0.049-0.023 0.073-0.004 0.013-0.008 0.026-0.012 0.040-0.013 0.041-0.026 0.083-0.039 0.124s-0.026 0.083-0.039 0.125c-0.008 0.026-0.016 0.051-0.024 0.077-0.021 0.066-0.042 0.131-0.064 0.196 0.147-0.041 0.147-0.041 0.293-0.087 0.017-0.006 0.017-0.006 0.034-0.011 0.022-0.007 0.044-0.015 0.066-0.022 0.061-0.020 0.105-0.029 0.167-0.008 0.033 0.039 0.032 0.065 0.033 0.116-0.042 0.147-0.172 0.227-0.297 0.301-0.134 0.074-0.271 0.102-0.424 0.079-0.107-0.042-0.201-0.118-0.272-0.208-0.047-0.14-0.006-0.282 0.035-0.419 0.005-0.017 0.010-0.035 0.015-0.053 0.015-0.051 0.030-0.102 0.046-0.152 0.004-0.014 0.009-0.029 0.013-0.043 0.022-0.071 0.044-0.142 0.067-0.213-0.012 0.002-0.024 0.005-0.037 0.008-0.129 0.025-0.129 0.025-0.19-0.014-0.080-0.066-0.117-0.116-0.134-0.219 0.008-0.047 0.008-0.047 0.048-0.080 0.060-0.038 0.123-0.052 0.192-0.066 0.012-0.003 0.023-0.005 0.036-0.008 0.065-0.014 0.13-0.027 0.196-0.037 0.008-0.052 0.015-0.104 0.023-0.156 0.002-0.015 0.005-0.031 0.007-0.046 0.014-0.097 0.024-0.193 0.026-0.291 0.008-0.035 0.008-0.035 0.037-0.064 0.043-0.024 0.077-0.025 0.125-0.017z"></path>
<path fill="#c9692a" d="M15.28 19.392c0.119 0.081 0.224 0.2 0.264 0.34 0.050 0.291-0.037 0.563-0.196 0.806-0.022 0.030-0.045 0.058-0.069 0.086-0.010 0.013-0.020 0.026-0.030 0.039-0.102 0.121-0.261 0.218-0.418 0.249-0.127 0.010-0.248 0.019-0.352-0.064-0.118-0.108-0.184-0.24-0.195-0.4-0.005-0.375 0.13-0.699 0.389-0.969 0.177-0.169 0.384-0.201 0.606-0.087zM15.015 19.682c-0.148 0.151-0.297 0.415-0.297 0.63-0 0.013-0 0.027-0 0.041s0 0.028 0 0.042c-0 0.014-0 0.028-0 0.042 0 0.013 0 0.027 0 0.040 0 0.012 0 0.024 0 0.037 0 0.032 0 0.032 0.018 0.063 0.103-0.019 0.168-0.094 0.226-0.176 0.108-0.17 0.176-0.323 0.178-0.526 0-0.011 0.001-0.022 0.001-0.033 0.001-0.081-0.017-0.136-0.053-0.209-0.031 0-0.052 0.030-0.073 0.050z"></path>
<path fill="#c9692a" d="M10.896 19.376c0.127 0.077 0.233 0.188 0.279 0.331 0.063 0.273-0.014 0.536-0.147 0.775-0.122 0.193-0.292 0.355-0.514 0.42-0.122 0.024-0.248 0.033-0.357-0.033-0.114-0.085-0.19-0.185-0.22-0.325-0.030-0.369 0.070-0.692 0.299-0.982 0.181-0.207 0.394-0.308 0.661-0.186zM10.72 19.632c-0.070 0.054-0.121 0.108-0.168 0.184-0.006 0.010-0.012 0.019-0.018 0.029-0.13 0.212-0.202 0.401-0.181 0.651 0.015 0.045 0.015 0.045 0.032 0.080 0.174-0.061 0.258-0.228 0.336-0.384 0.072-0.171 0.089-0.351 0.032-0.528-0.011-0.011-0.021-0.021-0.032-0.032z"></path>
<path fill="#c9692a" d="M23.537 19.382c0.088 0.071 0.155 0.175 0.191 0.282 0.003 0.057 0.003 0.057 0 0.112-0.032 0.032-0.032 0.032-0.063 0.033-0.057-0.007-0.106-0.014-0.16-0.035-0.128-0.037-0.254 0.010-0.369 0.066-0.016 0.011-0.032 0.021-0.048 0.032 0.004 0.054 0.011 0.075 0.052 0.112 0.015 0.010 0.030 0.020 0.045 0.031s0.032 0.022 0.048 0.033c0.015 0.010 0.031 0.021 0.047 0.032 0.259 0.183 0.259 0.183 0.304 0.336 0.013 0.090 0.015 0.182-0.039 0.261-0.132 0.141-0.313 0.231-0.506 0.238-0.23 0.004-0.394-0.035-0.588-0.16-0.048-0.048-0.078-0.098-0.099-0.163 0-0.062 0.003-0.096 0.042-0.144 0.071-0.030 0.127-0.009 0.196 0.018 0.025 0.011 0.025 0.011 0.050 0.021 0.144 0.062 0.306 0.081 0.46 0.040 0.018-0.008 0.018-0.008 0.036-0.016-0.011-0.083-0.040-0.109-0.103-0.161-0.047-0.035-0.095-0.068-0.144-0.101-0.107-0.072-0.232-0.158-0.281-0.282-0.013-0.085-0.005-0.156 0.043-0.229 0.166-0.213 0.62-0.534 0.886-0.357z"></path>
<path fill="#c9692a" d="M13.89 19.393c0.084 0.080 0.168 0.17 0.19 0.287-0.009 0.105-0.009 0.105-0.032 0.128-0.066 0.005-0.116 0.001-0.177-0.025-0.060-0.024-0.096-0.027-0.159-0.007-0.19 0.101-0.333 0.307-0.418 0.501-0.017 0.070-0.018 0.133 0.002 0.203 0.13 0.065 0.373 0.020 0.505-0.018 0.027-0.010 0.054-0.020 0.081-0.031 0.047-0.018 0.084-0.019 0.134-0.015 0.024 0.016 0.024 0.016 0.048 0.032-0 0.093-0.012 0.16-0.078 0.228-0.209 0.173-0.451 0.261-0.722 0.236-0.171-0.050-0.324-0.188-0.416-0.337-0.063-0.12-0.038-0.268-0.003-0.394 0.113-0.32 0.331-0.639 0.639-0.796 0.138-0.058 0.282-0.096 0.406 0.008z"></path>
<path fill="#c9692a" d="M12.402 19.393c0.084 0.080 0.168 0.17 0.19 0.287-0.009 0.105-0.009 0.105-0.032 0.128-0.066 0.005-0.116 0.001-0.177-0.025-0.060-0.024-0.096-0.027-0.159-0.007-0.19 0.101-0.333 0.307-0.418 0.501-0.017 0.070-0.018 0.133 0.002 0.203 0.13 0.065 0.373 0.020 0.505-0.018 0.027-0.010 0.054-0.020 0.081-0.031 0.047-0.018 0.084-0.019 0.134-0.015 0.024 0.016 0.024 0.016 0.048 0.032-0 0.093-0.012 0.16-0.078 0.228-0.209 0.173-0.451 0.261-0.722 0.236-0.171-0.050-0.324-0.188-0.416-0.337-0.063-0.12-0.038-0.268-0.003-0.394 0.113-0.32 0.331-0.639 0.639-0.796 0.138-0.058 0.282-0.096 0.406 0.008z"></path>
<path fill="#492d1e" d="M17.872 8.256c0.066 0.038 0.089 0.073 0.112 0.144 0.010 0.137-0.035 0.257-0.112 0.368-0.063 0.071-0.133 0.137-0.203 0.201-0.033 0.037-0.037 0.074-0.045 0.122 0.013 0.099 0.080 0.15 0.15 0.217 0.133 0.129 0.203 0.263 0.213 0.452-0.007 0.193-0.093 0.32-0.23 0.448-0.010 0.009-0.020 0.019-0.031 0.028-0.075 0.073-0.101 0.131-0.118 0.236-0.009 0.044-0.019 0.062-0.052 0.092-0.064 0.034-0.11 0.046-0.181 0.028-0.048-0.028-0.087-0.061-0.112-0.112-0.018-0.169 0.028-0.302 0.133-0.434 0.039-0.043 0.081-0.079 0.126-0.116 0.046-0.041 0.073-0.077 0.091-0.135 0.003-0.073-0.020-0.132-0.067-0.188-0.024-0.024-0.048-0.047-0.073-0.069-0.137-0.131-0.209-0.262-0.216-0.455 0.003-0.157 0.061-0.28 0.166-0.395 0.032-0.030 0.065-0.058 0.099-0.086 0.063-0.057 0.083-0.103 0.099-0.186 0.014-0.059 0.023-0.092 0.060-0.14 0.065-0.028 0.12-0.033 0.19-0.020z"></path>
<path fill="#492d1e" d="M18.576 8.432c0.056 0.032 0.091 0.066 0.112 0.128 0.004 0.078-0.004 0.143-0.026 0.218-0.008 0.029-0.008 0.029-0.017 0.059-0.021 0.059-0.049 0.109-0.080 0.163-0.032 0.065-0.041 0.090-0.020 0.16 0.019 0.039 0.041 0.076 0.063 0.113 0.13 0.227 0.124 0.554 0.063 0.802-0.076 0.256-0.076 0.256-0.176 0.325-0.065 0.019-0.1 0.020-0.164-0.002-0.049-0.034-0.069-0.055-0.092-0.11-0.017-0.1 0.022-0.178 0.061-0.269 0.074-0.199 0.047-0.439-0.035-0.631-0.033-0.067-0.066-0.132-0.112-0.192-0.027-0.046-0.039-0.080-0.036-0.134 0.017-0.061 0.052-0.108 0.087-0.16 0.052-0.080 0.080-0.162 0.105-0.254 0.022-0.080 0.045-0.144 0.11-0.197 0.058-0.025 0.094-0.028 0.156-0.019z"></path>
<path fill="#c9692a" d="M19.2 19.344c0.095 0.061 0.15 0.148 0.186 0.253 0.021 0.124-0.013 0.23-0.047 0.35-0.008 0.030-0.008 0.030-0.017 0.060-0.019 0.067-0.038 0.134-0.058 0.201-0.004 0.012-0.007 0.025-0.011 0.038-0.023 0.078-0.046 0.157-0.070 0.235-0.008 0.025-0.015 0.051-0.023 0.076-0.011 0.036-0.022 0.072-0.032 0.108-0.003 0.011-0.006 0.021-0.009 0.032-0.028 0.090-0.063 0.162-0.143 0.215-0.080 0.007-0.128 0.001-0.192-0.048-0.058-0.087-0.049-0.166-0.029-0.266 0.003-0.018 0.003-0.018 0.007-0.036 0.028-0.146 0.060-0.292 0.093-0.438 0.006-0.029 0.013-0.058 0.019-0.087 0.013-0.057 0.025-0.113 0.038-0.17 0.014-0.065 0.028-0.129 0.042-0.194 0.007-0.031 0.014-0.062 0.020-0.093 0.004-0.020 0.004-0.020 0.009-0.041 0.016-0.071 0.036-0.133 0.073-0.196 0.052-0.026 0.089-0.013 0.144 0z"></path>
<path fill="#c9692a" d="M12.807 21.867c0.057 0.005 0.057 0.005 0.084 0.024 0.029 0.040 0.027 0.068 0.027 0.117 0 0.018 0 0.036 0 0.055s-0 0.039-0 0.059c0 0.020 0 0.040 0 0.061 0 0.043-0 0.085-0 0.128-0 0.054-0 0.109 0 0.163 0 0.052 0 0.104-0 0.157 0 0.029 0 0.029 0 0.059-0.002 0.185-0.034 0.329-0.167 0.462-0.124 0.1-0.259 0.126-0.416 0.112-0.154-0.033-0.259-0.116-0.352-0.24-0.068-0.116-0.078-0.266-0.054-0.397 0.039-0.142 0.134-0.25 0.26-0.325 0.12-0.053 0.257-0.048 0.378-0.002 0.058 0.024 0.093 0.055 0.136 0.1 0-0.022 0-0.022 0.001-0.045 0.001-0.055 0.003-0.11 0.004-0.165 0.001-0.024 0.001-0.048 0.002-0.072 0.001-0.034 0.002-0.068 0.003-0.103 0.001-0.021 0.001-0.041 0.002-0.062 0.007-0.071 0.021-0.080 0.092-0.086zM12.17 22.567c-0.053 0.084-0.070 0.166-0.058 0.265 0.034 0.104 0.084 0.182 0.18 0.238 0.090 0.027 0.165 0.031 0.255 0.001 0.078-0.054 0.151-0.128 0.173-0.223 0.016-0.123-0.009-0.218-0.080-0.32-0.076-0.072-0.161-0.087-0.262-0.086-0.088 0.012-0.148 0.062-0.208 0.125z"></path>
<path fill="#c9692a" d="M13.919 22.339c0.101 0.077 0.158 0.193 0.177 0.317 0.005 0.069 0.008 0.117-0.032 0.176-0.031 0.006-0.031 0.006-0.070 0.005-0.014 0-0.029 0-0.044 0s-0.031-0-0.047-0.001c-0.016-0-0.032-0-0.048-0-0.051-0-0.102-0.001-0.153-0.001-0.035-0-0.069-0-0.104-0.001-0.085-0.001-0.17-0.001-0.254-0.002 0.012 0.023 0.025 0.046 0.037 0.070 0.007 0.013 0.014 0.026 0.021 0.039 0.040 0.065 0.097 0.102 0.165 0.131 0.114 0.014 0.204 0.002 0.306-0.049 0.040-0.019 0.067-0.025 0.11-0.015 0.030 0.027 0.030 0.027 0.048 0.064 0.001 0.040 0.001 0.040-0.016 0.080-0.107 0.094-0.249 0.121-0.388 0.116-0.153-0.016-0.26-0.077-0.368-0.184-0.088-0.138-0.11-0.266-0.092-0.428 0.025-0.112 0.069-0.214 0.16-0.288 0.183-0.111 0.4-0.146 0.591-0.029zM13.396 22.56c-0.026 0.041-0.026 0.041-0.052 0.128 0.19 0 0.38 0 0.576 0-0.042-0.143-0.042-0.143-0.144-0.224-0.15-0.064-0.278-0.027-0.38 0.096z"></path>
<path fill="#c9692a" d="M17.7 22.36c0.099 0.079 0.165 0.187 0.189 0.312 0.015 0.163-0.010 0.307-0.114 0.438-0.1 0.105-0.232 0.155-0.375 0.159-0.15-0.002-0.272-0.047-0.381-0.151-0.105-0.117-0.128-0.251-0.121-0.405 0.014-0.134 0.058-0.235 0.158-0.327 0.189-0.151 0.443-0.159 0.645-0.025zM17.164 22.549c-0.062 0.077-0.083 0.15-0.080 0.25 0.010 0.090 0.038 0.154 0.106 0.215 0.090 0.069 0.169 0.087 0.282 0.074 0.095-0.035 0.154-0.091 0.205-0.178 0.037-0.099 0.036-0.211-0.006-0.308-0.046-0.079-0.114-0.125-0.199-0.154-0.129-0.012-0.218 0.003-0.308 0.101z"></path>
<path fill="#492d1e" d="M16.886 8.654c0.048 0.063 0.045 0.118 0.042 0.194-0.003 0.011-0.005 0.023-0.008 0.034-0.054 0.301 0.030 0.546 0.183 0.802 0.023 0.060 0.019 0.095 0.001 0.156-0.039 0.051-0.066 0.075-0.126 0.096-0.065 0-0.11-0.009-0.162-0.048-0.206-0.225-0.275-0.497-0.278-0.793-0-0.017-0-0.033-0.001-0.050 0.001-0.126 0.003-0.294 0.094-0.392 0.082-0.058 0.173-0.064 0.255 0.001z"></path>
<path fill="#c9692a" d="M18.234 22.271c0.054 0.017 0.054 0.017 0.073 0.042 0.018 0.054 0.017 0.107 0.017 0.164 0 0.025 0.001 0.050 0.001 0.075 0 0.039 0.001 0.078 0.001 0.117 0 0.038 0.001 0.076 0.001 0.113-0 0.012-0 0.023-0 0.035 0.002 0.082 0.022 0.127 0.073 0.191 0.069 0.060 0.131 0.069 0.22 0.067 0.075-0.007 0.119-0.037 0.169-0.091 0.048-0.071 0.045-0.135 0.046-0.217 0-0.026 0.001-0.052 0.001-0.078 0.001-0.041 0.001-0.082 0.001-0.122 0-0.039 0.001-0.079 0.002-0.118-0-0.012-0-0.024-0-0.037 0.002-0.084 0.002-0.084 0.039-0.124 0.049-0.023 0.079-0.015 0.131 0 0.035 0.053 0.036 0.070 0.036 0.132 0 0.017 0 0.034 0 0.052s-0 0.037-0 0.056c0 0.029 0 0.029 0 0.058 0 0.040-0 0.080-0 0.121-0 0.062 0 0.123 0 0.185-0 0.039-0 0.078-0 0.117 0 0.018 0 0.037 0 0.056-0 0.017-0 0.034-0 0.052-0 0.015-0 0.030-0 0.046-0.004 0.038-0.004 0.038-0.036 0.086-0.030 0.006-0.030 0.006-0.064 0.005-0.011-0-0.022-0-0.034-0-0.030-0.005-0.030-0.005-0.062-0.037 0-0.016 0-0.032 0-0.048-0.020 0.015-0.020 0.015-0.041 0.030-0.11 0.072-0.231 0.079-0.359 0.066-0.124-0.028-0.201-0.088-0.272-0.192-0.075-0.14-0.068-0.295-0.069-0.45-0-0.022-0-0.044-0.001-0.066-0.001-0.032-0.001-0.064-0.001-0.096-0-0.019-0-0.038-0.001-0.057 0.012-0.085 0.042-0.131 0.13-0.132z"></path>
<path fill="#c9692a" d="M19.968 22.336c0.053 0.039 0.092 0.073 0.104 0.14-0.008 0.036-0.008 0.036-0.040 0.068-0.092 0.011-0.135-0.009-0.208-0.064-0.051-0.017-0.090-0.019-0.143-0.020-0.017-0-0.033-0.001-0.050-0.001-0.052 0.006-0.073 0.019-0.111 0.053-0.003 0.038-0.003 0.038 0.016 0.080 0.072 0.049 0.156 0.068 0.24 0.087 0.112 0.026 0.2 0.064 0.281 0.147 0.033 0.078 0.035 0.147 0.023 0.23-0.046 0.094-0.112 0.15-0.209 0.188-0.147 0.045-0.322 0.037-0.459-0.035-0.105-0.062-0.105-0.062-0.132-0.089-0.006-0.054-0.006-0.054 0-0.112 0.034-0.033 0.034-0.033 0.080-0.048 0.076 0.015 0.129 0.053 0.192 0.096 0.087 0.028 0.187 0.028 0.274 0 0.015-0.008 0.015-0.008 0.030-0.016 0.005-0.037 0.011-0.074 0.016-0.112-0.046-0.038-0.083-0.057-0.14-0.071-0.015-0.004-0.029-0.008-0.044-0.012-0.030-0.008-0.061-0.016-0.091-0.023-0.097-0.026-0.179-0.050-0.245-0.131-0.043-0.085-0.050-0.151-0.024-0.243 0.043-0.090 0.102-0.126 0.192-0.16 0.146-0.046 0.317-0.030 0.448 0.048z"></path>
<path fill="#c9692a" d="M16.081 22.359c0.073 0.058 0.073 0.058 0.092 0.105 0.001 0.010 0.002 0.021 0.003 0.032-0.039 0.044-0.039 0.044-0.080 0.080-0.066-0.027-0.12-0.052-0.176-0.096-0.080-0.027-0.164-0.032-0.245-0.003-0.070 0.039-0.114 0.084-0.145 0.158-0.026 0.096-0.025 0.192 0.016 0.283 0.043 0.075 0.099 0.126 0.182 0.154 0.101 0.011 0.171 0 0.259-0.049 0.044-0.022 0.077-0.023 0.125-0.015 0.032 0.027 0.032 0.027 0.048 0.064-0.009 0.059-0.037 0.088-0.083 0.123-0.113 0.074-0.233 0.082-0.365 0.069-0.122-0.027-0.223-0.079-0.304-0.176-0.091-0.147-0.123-0.292-0.086-0.463 0.046-0.141 0.13-0.249 0.262-0.321 0.169-0.069 0.35-0.049 0.497 0.055z"></path>
<path fill="#c9692a" d="M14.334 21.866c0.017 0 0.017 0 0.034 0 0.011-0 0.022-0 0.034-0 0.030 0.006 0.030 0.006 0.062 0.054 0.004 0.046 0.004 0.046 0.004 0.103 0 0.010 0 0.021 0 0.031 0 0.022 0 0.045 0 0.067 0 0.036 0 0.071 0 0.107 0.001 0.101 0.001 0.202 0.001 0.303 0 0.062 0 0.124 0.001 0.186 0 0.024 0 0.047 0 0.071-0 0.033 0 0.066 0.001 0.099 0 0.019 0 0.038 0 0.057 0.010 0.058 0.025 0.077 0.072 0.112 0.037 0.012 0.074 0.023 0.112 0.032 0.016 0.016 0.016 0.016 0.020 0.062-0.004 0.050-0.004 0.050-0.023 0.077-0.059 0.044-0.135 0.031-0.205 0.021-0.070-0.027-0.113-0.073-0.147-0.139-0.046-0.108-0.038-0.223-0.037-0.339 0-0.024 0-0.049 0-0.073 0-0.051 0-0.102 0.001-0.153 0.001-0.065 0.001-0.131 0.001-0.196 0-0.050 0-0.101 0-0.151 0-0.024 0-0.048 0-0.072 0-0.034 0-0.067 0.001-0.101 0-0.019 0-0.038 0-0.058 0.005-0.051 0.011-0.089 0.066-0.101z"></path>
<path fill="#c9692a" d="M19.312 18.704c0.109 0.084 0.206 0.248 0.23 0.384 0.004 0.061-0.003 0.092-0.039 0.142-0.058 0.040-0.089 0.050-0.159 0.049-0.122-0.033-0.214-0.134-0.275-0.241-0.021-0.051-0.019-0.088-0.013-0.143 0.044-0.102 0.131-0.221 0.256-0.192z"></path>
<path fill="#c9692a" d="M16.608 22.288c0.035 0.053 0.036 0.069 0.036 0.13 0 0.017 0 0.034 0 0.051s-0 0.036-0 0.055c0 0.019 0 0.037 0 0.056 0 0.039 0 0.079 0 0.118-0 0.060 0 0.121 0.001 0.181 0 0.038 0 0.076 0 0.115 0 0.018 0 0.036 0 0.055-0 0.017-0 0.034-0 0.051 0 0.015 0 0.030 0 0.045-0.007 0.048-0.020 0.070-0.054 0.104-0.057 0.006-0.057 0.006-0.112 0-0.042-0.042-0.036-0.059-0.037-0.117-0-0.018-0-0.036-0.001-0.054s-0-0.039-0-0.058c-0-0.030-0-0.030-0-0.060-0-0.042-0-0.084-0-0.125 0-0.043-0-0.086-0.001-0.129-0.001-0.062-0.001-0.123-0.001-0.185-0-0.019-0-0.038-0.001-0.058 0-0.018 0-0.036 0-0.054-0-0.024-0-0.024-0-0.048 0.008-0.040 0.008-0.040 0.037-0.069 0.049-0.026 0.078-0.018 0.131-0.002z"></path>
<path fill="#c9692a" d="M15.008 22.288c0.042 0.042 0.036 0.059 0.036 0.117 0 0.018 0 0.036 0 0.054s-0 0.039-0 0.059c0 0.020 0 0.040 0 0.060 0 0.053-0 0.105-0 0.158-0 0.032 0 0.065 0 0.097 0 0.062 0 0.124 0 0.185 0 0.019 0 0.039 0 0.059-0 0.018-0 0.036-0 0.054-0 0.024-0 0.024-0 0.048-0.004 0.038-0.004 0.038-0.036 0.070-0.055 0.006-0.055 0.006-0.112 0-0.034-0.034-0.047-0.056-0.054-0.104 0-0.015 0-0.030 0-0.045-0-0.017-0-0.034-0-0.051s0-0.036 0-0.055c0-0.028 0-0.028-0-0.056 0-0.039 0-0.079 0-0.118 0-0.060 0-0.121 0-0.181 0-0.038 0-0.076 0-0.115 0-0.018-0-0.036-0-0.055 0-0.017 0-0.034 0-0.051 0-0.015 0-0.030 0-0.045 0.004-0.038 0.004-0.038 0.036-0.086 0.053-0.018 0.075-0.015 0.128 0z"></path>
<path fill="#c96829" d="M16.592 21.888c0.038 0.024 0.038 0.024 0.064 0.064 0.010 0.057 0.012 0.109-0.019 0.159-0.039 0.023-0.064 0.031-0.109 0.033-0.090-0.036-0.090-0.036-0.112-0.080-0.006-0.054-0.006-0.054 0-0.112 0.053-0.061 0.097-0.078 0.176-0.064z"></path>
<path fill="#ca6829" d="M14.992 21.888c0.046 0.025 0.046 0.025 0.080 0.064 0.009 0.056 0.009 0.056 0 0.112-0.029 0.039-0.051 0.058-0.095 0.078-0.045 0.003-0.073-0.010-0.113-0.030-0.032-0.032-0.032-0.032-0.038-0.094 0.001-0.048 0.005-0.064 0.032-0.106 0.050-0.031 0.076-0.033 0.134-0.024z"></path>
</svg>
