<?xml version="1.0" encoding="iso-8859-1"?>
<!-- Uploaded to: SVG Repo, www.svgrepo.com, Generator: SVG Repo Mixer Tools -->
<!DOCTYPE svg PUBLIC "-//W3C//DTD SVG 1.1//EN" "http://www.w3.org/Graphics/SVG/1.1/DTD/svg11.dtd">
<svg fill="#000000" height="800px" width="800px" version="1.1" id="Capa_1" xmlns="http://www.w3.org/2000/svg" xmlns:xlink="http://www.w3.org/1999/xlink" 
	 viewBox="0 0 297 297" xml:space="preserve">
<g>
	<path d="M78.358,9.978C78.358,4.468,73.89,0,68.379,0s-9.978,4.468-9.978,9.978v9.832h19.957V9.978z"/>
	<path d="M99.136,51.545V39.362c0-3.083-2.499-5.582-5.582-5.582h-50.35c-3.083,0-5.582,2.499-5.582,5.582v12.182v0L99.136,51.545
		C99.136,51.545,99.136,51.545,99.136,51.545z"/>
	<path d="M88.99,58.53H47.768c-13.783,0-24.996,11.213-24.996,24.996v67.099c12.083,3.111,21.036,14.1,21.036,27.141
		c0,13.041-8.953,24.03-21.036,27.141v67.099c0,13.782,11.213,24.995,24.996,24.995H88.99c13.783,0,24.996-11.213,24.996-24.995
		v-67.099c-12.083-3.111-21.036-14.1-21.036-27.141c0-13.04,8.953-24.029,21.036-27.141V83.525
		C113.986,69.743,102.773,58.53,88.99,58.53z M77.041,268.963H59.716c-3.858,0-6.985-3.127-6.985-6.985
		c0-3.858,3.127-6.985,6.985-6.985h17.325c3.858,0,6.985,3.127,6.985,6.985C84.026,265.836,80.899,268.963,77.041,268.963z
		 M77.041,234.313H59.716c-3.858,0-6.985-3.127-6.985-6.985c0-3.858,3.127-6.985,6.985-6.985h17.325
		c3.858,0,6.985,3.127,6.985,6.985C84.026,231.186,80.899,234.313,77.041,234.313z"/>
	<path d="M218.298,192.076c2.119-2.541,4.68-5.025,7.656-7.169c0.701-5.139,3.402-12.129,11.41-19.558
		c3.603-3.343,3.815-8.974,0.472-12.577c-3.341-3.603-8.974-3.816-12.577-0.472c-11.98,11.113-16.082,22.257-17.048,30.996
		C212.246,185.751,215.623,188.868,218.298,192.076z"/>
	<path d="M260.633,192.141c-10.406-4.351-19.291-3.437-27.166,2.795c-6.317,5.001-9.536,11.652-9.568,11.718
		c-1.16,2.43-3.619,3.991-6.311,3.991c-0.011,0-0.02,0-0.031,0c-2.703-0.012-5.164-1.568-6.306-4.019
		c-0.02-0.039-3.238-6.69-9.556-11.691c-4.627-3.662-9.603-5.488-15.033-5.488c-3.809,0-7.84,0.9-12.132,2.693
		c-8.366,3.498-13.446,15.348-13.592,31.697c-0.216,24.244,10.793,55.349,28.954,63.326c12.469,5.477,24.616,0.121,24.735,0.066
		c1.862-0.869,4.01-0.873,5.876-0.016c0.284,0.126,12.378,5.392,24.766-0.051c18.162-7.977,29.171-39.082,28.956-63.326
		C274.08,207.489,268.998,195.639,260.633,192.141z"/>
</g>
</svg>